<svg viewBox="0 0 1513 400" xmlns="http://www.w3.org/2000/svg"><g><g><g><g><g><line x1="50" y1="377.18857980393227" x2="45" y2="377.18857980393227" style="visibility: inherit;" fill="rgb(0, 0, 0)" stroke="rgb(204, 204, 204)" stroke-width="1px"></line><line x1="50" y1="365.46704542230145" x2="45" y2="365.46704542230145" style="visibility: inherit;" fill="rgb(0, 0, 0)" stroke="rgb(204, 204, 204)" stroke-width="1px"></line><line x1="50" y1="354.9817756220521" x2="45" y2="354.9817756220521" style="visibility: inherit;" fill="rgb(0, 0, 0)" stroke="rgb(204, 204, 204)" stroke-width="1px"></line><line x1="50" y1="286.0011413296335" x2="45" y2="286.0011413296335" style="visibility: inherit;" fill="rgb(0, 0, 0)" stroke="rgb(204, 204, 204)" stroke-width="1px"></line><line x1="50" y1="245.6500569926088" x2="45" y2="245.6500569926088" style="visibility: inherit;" fill="rgb(0, 0, 0)" stroke="rgb(204, 204, 204)" stroke-width="1px"></line><line x1="50" y1="217.02050703721494" x2="45" y2="217.02050703721494" style="visibility: inherit;" fill="rgb(0, 0, 0)" stroke="rgb(204, 204, 204)" stroke-width="1px"></line><line x1="50" y1="194.81370285533472" x2="45" y2="194.81370285533472" style="visibility: inherit;" fill="rgb(0, 0, 0)" stroke="rgb(204, 204, 204)" stroke-width="1px"></line><line x1="50" y1="176.66942270019024" x2="45" y2="176.66942270019024" style="visibility: inherit;" fill="rgb(0, 0, 0)" stroke="rgb(204, 204, 204)" stroke-width="1px"></line><line x1="50" y1="161.32865241457517" x2="45" y2="161.32865241457517" style="visibility: inherit;" fill="rgb(0, 0, 0)" stroke="rgb(204, 204, 204)" stroke-width="1px"></line><line x1="50" y1="148.03987274479633" x2="45" y2="148.03987274479633" style="visibility: inherit;" fill="rgb(0, 0, 0)" stroke="rgb(204, 204, 204)" stroke-width="1px"></line><line x1="50" y1="136.31833836316548" x2="45" y2="136.31833836316548" style="visibility: inherit;" fill="rgb(0, 0, 0)" stroke="rgb(204, 204, 204)" stroke-width="1px"></line><line x1="50" y1="125.83306856291617" x2="45" y2="125.83306856291617" style="visibility: inherit;" fill="rgb(0, 0, 0)" stroke="rgb(204, 204, 204)" stroke-width="1px"></line><line x1="50" y1="56.852434270497554" x2="45" y2="56.852434270497554" style="visibility: inherit;" fill="rgb(0, 0, 0)" stroke="rgb(204, 204, 204)" stroke-width="1px"></line><line x1="50" y1="16.501349933472795" x2="45" y2="16.501349933472795" style="visibility: inherit;" fill="rgb(0, 0, 0)" stroke="rgb(204, 204, 204)" stroke-width="1px"></line></g><g transform="translate(40, 0)"><text x="0" y="377.18857980393227" dx="0em" dy="0.3em" style="text-anchor: end; visibility: hidden; font-family: &quot;Helvetica Neue&quot;, sans-serif; font-size: 12px; font-weight: 200;" fill="rgb(50, 49, 63)" stroke="none" stroke-width="1px">8e-3</text><text x="0" y="365.46704542230145" dx="0em" dy="0.3em" style="text-anchor: end; visibility: inherit; font-family: &quot;Helvetica Neue&quot;, sans-serif; font-size: 12px; font-weight: 200;" fill="rgb(50, 49, 63)" stroke="none" stroke-width="1px">9e-3</text><text x="0" y="354.9817756220521" dx="0em" dy="0.3em" style="text-anchor: end; visibility: hidden; font-family: &quot;Helvetica Neue&quot;, sans-serif; font-size: 12px; font-weight: 200;" fill="rgb(50, 49, 63)" stroke="none" stroke-width="1px">0.01</text><text x="0" y="286.0011413296335" dx="0em" dy="0.3em" style="text-anchor: end; visibility: hidden; font-family: &quot;Helvetica Neue&quot;, sans-serif; font-size: 12px; font-weight: 200;" fill="rgb(50, 49, 63)" stroke="none" stroke-width="1px">0.02</text><text x="0" y="245.6500569926088" dx="0em" dy="0.3em" style="text-anchor: end; visibility: inherit; font-family: &quot;Helvetica Neue&quot;, sans-serif; font-size: 12px; font-weight: 200;" fill="rgb(50, 49, 63)" stroke="none" stroke-width="1px">0.03</text><text x="0" y="217.02050703721494" dx="0em" dy="0.3em" style="text-anchor: end; visibility: hidden; font-family: &quot;Helvetica Neue&quot;, sans-serif; font-size: 12px; font-weight: 200;" fill="rgb(50, 49, 63)" stroke="none" stroke-width="1px">0.04</text><text x="0" y="194.81370285533472" dx="0em" dy="0.3em" style="text-anchor: end; visibility: hidden; font-family: &quot;Helvetica Neue&quot;, sans-serif; font-size: 12px; font-weight: 200;" fill="rgb(50, 49, 63)" stroke="none" stroke-width="1px">0.05</text><text x="0" y="176.66942270019024" dx="0em" dy="0.3em" style="text-anchor: end; visibility: inherit; font-family: &quot;Helvetica Neue&quot;, sans-serif; font-size: 12px; font-weight: 200;" fill="rgb(50, 49, 63)" stroke="none" stroke-width="1px">0.06</text><text x="0" y="161.32865241457517" dx="0em" dy="0.3em" style="text-anchor: end; visibility: hidden; font-family: &quot;Helvetica Neue&quot;, sans-serif; font-size: 12px; font-weight: 200;" fill="rgb(50, 49, 63)" stroke="none" stroke-width="1px">0.07</text><text x="0" y="148.03987274479633" dx="0em" dy="0.3em" style="text-anchor: end; visibility: hidden; font-family: &quot;Helvetica Neue&quot;, sans-serif; font-size: 12px; font-weight: 200;" fill="rgb(50, 49, 63)" stroke="none" stroke-width="1px">0.08</text><text x="0" y="136.31833836316548" dx="0em" dy="0.3em" style="text-anchor: end; visibility: inherit; font-family: &quot;Helvetica Neue&quot;, sans-serif; font-size: 12px; font-weight: 200;" fill="rgb(50, 49, 63)" stroke="none" stroke-width="1px">0.09</text><text x="0" y="125.83306856291617" dx="0em" dy="0.3em" style="text-anchor: end; visibility: hidden; font-family: &quot;Helvetica Neue&quot;, sans-serif; font-size: 12px; font-weight: 200;" fill="rgb(50, 49, 63)" stroke="none" stroke-width="1px">0.1</text><text x="0" y="56.852434270497554" dx="0em" dy="0.3em" style="text-anchor: end; visibility: hidden; font-family: &quot;Helvetica Neue&quot;, sans-serif; font-size: 12px; font-weight: 200;" fill="rgb(50, 49, 63)" stroke="none" stroke-width="1px">0.2</text><text x="0" y="16.501349933472795" dx="0em" dy="0.3em" style="text-anchor: end; visibility: inherit; font-family: &quot;Helvetica Neue&quot;, sans-serif; font-size: 12px; font-weight: 200;" fill="rgb(50, 49, 63)" stroke="none" stroke-width="1px">0.3</text></g><line x1="50" y1="0" x2="50" y2="378" fill="rgb(0, 0, 0)" stroke="rgb(204, 204, 204)" stroke-width="1px"></line></g></g><g transform="translate(50, 0)" clip-path="url(#clip_0)"><clipPath id="clip_0"><rect width="1463" height="378"></rect></clipPath><g><g><g><line x1="0" y1="0" x2="0" y2="378" fill="rgb(0, 0, 0)" stroke="rgb(60, 60, 60)" stroke-width="1px" opacity="0.25"></line><line x1="121.91666666666666" y1="0" x2="121.91666666666666" y2="378" fill="rgb(0, 0, 0)" stroke="rgb(60, 60, 60)" stroke-width="1px" opacity="0.25"></line><line x1="243.83333333333331" y1="0" x2="243.83333333333331" y2="378" fill="rgb(0, 0, 0)" stroke="rgb(60, 60, 60)" stroke-width="1px" opacity="0.25"></line><line x1="365.75" y1="0" x2="365.75" y2="378" fill="rgb(0, 0, 0)" stroke="rgb(60, 60, 60)" stroke-width="1px" opacity="0.25"></line><line x1="487.66666666666663" y1="0" x2="487.66666666666663" y2="378" fill="rgb(0, 0, 0)" stroke="rgb(60, 60, 60)" stroke-width="1px" opacity="0.25"></line><line x1="609.5833333333334" y1="0" x2="609.5833333333334" y2="378" fill="rgb(0, 0, 0)" stroke="rgb(60, 60, 60)" stroke-width="1px" opacity="0.25"></line><line x1="731.5" y1="0" x2="731.5" y2="378" fill="rgb(0, 0, 0)" stroke="rgb(60, 60, 60)" stroke-width="1px" opacity="0.25"></line><line x1="853.4166666666667" y1="0" x2="853.4166666666667" y2="378" fill="rgb(0, 0, 0)" stroke="rgb(60, 60, 60)" stroke-width="1px" opacity="0.25"></line><line x1="975.3333333333333" y1="0" x2="975.3333333333333" y2="378" fill="rgb(0, 0, 0)" stroke="rgb(60, 60, 60)" stroke-width="1px" opacity="0.25"></line><line x1="1097.25" y1="0" x2="1097.25" y2="378" fill="rgb(0, 0, 0)" stroke="rgb(60, 60, 60)" stroke-width="1px" opacity="0.25"></line><line x1="1219.1666666666667" y1="0" x2="1219.1666666666667" y2="378" fill="rgb(0, 0, 0)" stroke="rgb(60, 60, 60)" stroke-width="1px" opacity="0.25"></line><line x1="1341.0833333333333" y1="0" x2="1341.0833333333333" y2="378" fill="rgb(0, 0, 0)" stroke="rgb(60, 60, 60)" stroke-width="1px" opacity="0.25"></line><line x1="1463" y1="0" x2="1463" y2="378" fill="rgb(0, 0, 0)" stroke="rgb(60, 60, 60)" stroke-width="1px" opacity="0.25"></line></g><g><line x1="0" y1="377.18857980393227" x2="1463" y2="377.18857980393227" fill="rgb(0, 0, 0)" stroke="rgb(60, 60, 60)" stroke-width="1px" opacity="0.25"></line><line x1="0" y1="365.46704542230145" x2="1463" y2="365.46704542230145" fill="rgb(0, 0, 0)" stroke="rgb(60, 60, 60)" stroke-width="1px" opacity="0.25"></line><line x1="0" y1="354.9817756220521" x2="1463" y2="354.9817756220521" fill="rgb(0, 0, 0)" stroke="rgb(60, 60, 60)" stroke-width="1px" opacity="0.25"></line><line x1="0" y1="286.0011413296335" x2="1463" y2="286.0011413296335" fill="rgb(0, 0, 0)" stroke="rgb(60, 60, 60)" stroke-width="1px" opacity="0.25"></line><line x1="0" y1="245.6500569926088" x2="1463" y2="245.6500569926088" fill="rgb(0, 0, 0)" stroke="rgb(60, 60, 60)" stroke-width="1px" opacity="0.25"></line><line x1="0" y1="217.02050703721494" x2="1463" y2="217.02050703721494" fill="rgb(0, 0, 0)" stroke="rgb(60, 60, 60)" stroke-width="1px" opacity="0.25"></line><line x1="0" y1="194.81370285533472" x2="1463" y2="194.81370285533472" fill="rgb(0, 0, 0)" stroke="rgb(60, 60, 60)" stroke-width="1px" opacity="0.25"></line><line x1="0" y1="176.66942270019024" x2="1463" y2="176.66942270019024" fill="rgb(0, 0, 0)" stroke="rgb(60, 60, 60)" stroke-width="1px" opacity="0.25"></line><line x1="0" y1="161.32865241457517" x2="1463" y2="161.32865241457517" fill="rgb(0, 0, 0)" stroke="rgb(60, 60, 60)" stroke-width="1px" opacity="0.25"></line><line x1="0" y1="148.03987274479633" x2="1463" y2="148.03987274479633" fill="rgb(0, 0, 0)" stroke="rgb(60, 60, 60)" stroke-width="1px" opacity="0.25"></line><line x1="0" y1="136.31833836316548" x2="1463" y2="136.31833836316548" fill="rgb(0, 0, 0)" stroke="rgb(60, 60, 60)" stroke-width="1px" opacity="0.25"></line><line x1="0" y1="125.83306856291617" x2="1463" y2="125.83306856291617" fill="rgb(0, 0, 0)" stroke="rgb(60, 60, 60)" stroke-width="1px" opacity="0.25"></line><line x1="0" y1="56.852434270497554" x2="1463" y2="56.852434270497554" fill="rgb(0, 0, 0)" stroke="rgb(60, 60, 60)" stroke-width="1px" opacity="0.25"></line><line x1="0" y1="16.501349933472795" x2="1463" y2="16.501349933472795" fill="rgb(0, 0, 0)" stroke="rgb(60, 60, 60)" stroke-width="1px" opacity="0.25"></line></g></g></g><g><g><line x1="121.91666666666666" y1="0" x2="121.91666666666666" y2="378" fill="rgb(0, 0, 0)" stroke="rgb(153, 153, 153)" stroke-width="1.5px"></line></g></g><g><g><g><g><g><path stroke="rgb(204, 51, 17)" stroke-width="2px" d="M146.3,-21.507454075936607L158.49166666666667,17.05127989070138L170.68333333333334,54.00000000000006L182.875,88.01432514044427L195.06666666666666,117.71037292966594L207.25833333333333,143.9853691767329L219.45,166.7982119030212L231.64166666666665,186.27201711800015L243.83333333333331,201.68679109124494L256.025,217.55544540859546L268.21666666666664,229.8725583027815L280.40833333333336,241.95152660565782L292.6,251.74197882262044L304.7916666666667,259.10818209231894L316.98333333333335,265.36580028176263L329.175,269.90182773100446L341.3666666666667,274.02544857202633L353.55833333333334,277.3303626992257L365.75,279.59689323917826L377.9416666666667,283.12798717281976L390.1333333333333,285.59035409671156L402.32500000000005,288.1851773580539L414.51666666666665,290.3685307178729L426.70833333333337,292.24890571343724L438.9,294.0996634220221L451.0916666666667,295.72689248385694L463.2833333333333,296.6091704006677L475.475,297.18234608044924L487.66666666666663,298.5027409003571L499.85833333333335,299.606230736193L512.05,301.09159647938577L524.2416666666667,301.86573009478167L536.4333333333333,302.8845778145695L548.625,304.0973086371809L560.8166666666667,305.0187252688802L573.0083333333333,306.01464856148414L585.2,305.7991873868158L597.3916666666667,306.5509918038687L609.5833333333334,307.2386936573016L621.775,308.31711916400593L633.9666666666667,308.6054039475582L646.1583333333333,306.6103716272192L658.35,308.1892955024687L670.5416666666666,309.215923670954L682.7333333333333,310.6761688583388L694.925,311.2870294672285L707.1166666666667,311.9228745923384L719.3083333333333,311.42914555907066L731.5,312.07352074297467L743.6916666666666,312.74196194984404L755.8833333333334,313.2987508983828L768.075,314.11312965948724L780.2666666666667,314.47251580192915L792.4583333333333,314.0068250863957L804.6500000000001,311.29456018912794L816.8416666666667,310.3986388275505L829.0333333333333,312.697228757335L841.2249999999999,313.74558782415494L853.4166666666667,315.05419654406023L865.6083333333333,315.2446546056635L877.8,316.2080402218814L889.9916666666666,316.2916668650473L902.1833333333334,316.439051121743L914.375,316.1382008577112L926.5666666666666,316.57275106391853L938.7583333333334,316.5014727775358L950.95,317.05499641617257L963.1416666666667,317.6014610997592L975.3333333333333,317.600435903448L987.5250000000001,318.68870225997114L999.7166666666667,318.38894947439627L1011.9083333333333,318.8072171520811L1024.1,318.8915630904827L1036.2916666666667,318.70269386842284L1048.4833333333333,319.0799460828297L1060.675,318.4511957282434L1072.8666666666666,318.23160850668637L1085.0583333333334,319.490714796133L1097.25,320.2793148056649L1109.4416666666666,320.4268432892386L1121.6333333333334,320.69741764054277L1133.825,317.81897837223573L1146.0166666666667,317.7309388576513L1158.2083333333333,318.17439122793445L1170.4,319.57994214421825L1182.5916666666667,321.0099700509977L1194.7833333333333,318.6454826568958L1206.975,319.68621295496246L1219.1666666666667,320.4691776139707L1231.3583333333333,320.82935410447186L1243.55,320.75028149675273L1255.7416666666666,321.89493407265354L1267.9333333333334,321.9982774362372L1280.125,321.9905613321684L1292.3166666666666,322.4917391838602L1304.5083333333334,322.6605349047678L1316.7,322.96038604766255L1328.8916666666667,322.47727842566155" style="fill: none;" fill="none"></path></g><g><path stroke="rgb(0, 119, 187)" stroke-width="2px" d="M158.49166666666667,-42.70589549741857L170.68333333333334,1.0397038665572609L182.875,41.62784526474576L195.06666666666666,78.55237987014186L207.25833333333333,111.18337112112505L219.45,139.47637905002813L231.64166666666665,163.86429223227339L243.83333333333331,185.02178000807854L256.025,203.23544407633898L268.21666666666664,219.7198332929579L280.40833333333336,234.68483635558306L292.6,247.97139614597796L304.7916666666667,259.1989319827206L316.98333333333335,268.39296492948887L329.175,276.08298984210853L341.3666666666667,282.01737977582417L353.55833333333334,286.8766056055912L365.75,290.853733762463L377.9416666666667,293.9178164826435L390.1333333333333,296.3572729503594L402.32500000000005,298.59131205465735L414.51666666666665,300.5402567100578L426.70833333333337,302.3354428580546L438.9,303.32593049872264L451.0916666666667,304.75050819515445L463.2833333333333,306.1674422086886L475.475,306.9032323890343L487.66666666666663,307.93234068642244L499.85833333333335,308.73335606873434L512.05,309.3838899518703L524.2416666666667,310.5612498066539L536.4333333333333,311.40714008187814L548.625,311.32804827638324L560.8166666666667,312.2291079646576L573.0083333333333,313.13932098797324L585.2,313.67177956282796L597.3916666666667,314.2494530607133L609.5833333333334,314.6617332330475L621.775,315.16820111395134L633.9666666666667,315.9050000390465L646.1583333333333,316.24923587825594L658.35,316.48960212790075L670.5416666666666,316.2842774693046L682.7333333333333,316.700638441435L694.925,317.3344196319005L707.1166666666667,317.41555054666037L719.3083333333333,317.7613480590462L731.5,317.92780373516223L743.6916666666666,317.8945915193912L755.8833333333334,318.42533244259204L768.075,318.1958229271721L780.2666666666667,318.67881197254L792.4583333333333,319.2198540945617L804.6500000000001,318.7382414195812L816.8416666666667,319.33593774927397L829.0333333333333,319.19752235969514L841.2249999999999,319.8568698810709L853.4166666666667,319.6558270527585L865.6083333333333,320.31704029836254L877.8,320.0847263228269L889.9916666666666,320.39458392342334L902.1833333333334,320.1837172927382L914.375,320.7475584597307L926.5666666666666,320.9435618216816L938.7583333333334,321.20559335497745L950.95,321.25693504980865L963.1416666666667,321.05570711050973L975.3333333333333,321.60702885918835L987.5250000000001,321.99743503961713L999.7166666666667,321.63990311953904L1011.9083333333333,321.4753392256798L1024.1,321.7861388138891L1036.2916666666667,322.2464616772616L1048.4833333333333,322.3102126828633L1060.675,322.26129887642963L1072.8666666666666,322.44682904726216L1085.0583333333334,322.60935655581466L1097.25,323.0862810909989L1109.4416666666666,323.4244733954196L1121.6333333333334,323.5654148964612L1133.825,323.7344770703461L1146.0166666666667,323.2644281981052L1158.2083333333333,323.4167548541263L1170.4,323.7323002072312L1182.5916666666667,323.7108513907646L1194.7833333333333,323.99999999999994L1206.975,323.93965747862836L1219.1666666666667,324.25553115992125L1231.3583333333333,324.51224505499874L1243.55,324.330424229579L1255.7416666666666,324.2569679344398L1267.9333333333334,324.1018360897166L1280.125,324.40513466883704L1292.3166666666666,324.4867795581554L1304.5083333333334,324.72191909751314L1316.7,324.7210805859933L1328.8916666666667,324.44821250100176" style="fill: none;" fill="none"></path></g></g></g></g><g opacity="0.2"><g><g><g><path stroke="rgb(204, 51, 17)" stroke-width="2px" d="M134.10833333333332,-2.2647834567352447L146.3,45.66123282713079L158.49166666666667,97.96833552308954L170.68333333333334,141.99900569804635L182.875,170.55059275258705L195.06666666666666,186.13825975775882L207.25833333333333,201.7852845000119L219.45,214.3653152162106L231.64166666666665,224.79025665224117L243.83333333333331,230.28745776993495L256.025,247.30140601489737L268.21666666666664,251.73155178813914L280.40833333333336,263.3306807366138L292.6,268.4966979942206L304.7916666666667,271.2870227744648L316.98333333333335,275.55515701501355L329.175,277.11752005409187L341.3666666666667,280.54942095018237L353.55833333333334,282.5027792448276L365.75,283.096388190815L377.9416666666667,288.67114918854895L390.1333333333333,289.40200111025877L402.32500000000005,292.2088233339464L414.51666666666665,293.73607423637156L426.70833333333337,295.1378036960341L438.9,296.94197583051584L451.0916666666667,298.21873603161714L463.2833333333333,297.94742805491296L475.475,298.04834699671017L487.66666666666663,300.5167732080032L499.85833333333335,301.28475233740784L512.05,303.3620594225711L524.2416666666667,303.0383398972981L536.4333333333333,304.43267811522816L548.625,305.9445727597248L560.8166666666667,306.41704640759644L573.0083333333333,307.5274740725533L585.2,305.4768677657503L597.3916666666667,307.68945590609997L609.5833333333334,308.2792398334923L621.775,309.95699103658546L633.9666666666667,309.03940302054406L646.1583333333333,303.690865283043L658.35,310.6056688276417L670.5416666666666,310.77600082500066L682.7333333333333,312.9075145202192L694.925,312.2104089041883L707.1166666666667,312.8843251077357L719.3083333333333,310.69311464092516L731.5,313.04797477548556L743.6916666666666,313.75311823461675L755.8833333333334,314.1398191678345L768.075,315.34733126389625L780.2666666666667,315.0140402439527L792.4583333333333,313.31234965917207L804.6500000000001,307.3599198352482L816.8416666666667,309.06970067110615L829.0333333333333,316.24783290940144L841.2249999999999,315.33912896657756L853.4166666666667,317.04995052388506L865.6083333333333,315.53102688359553L877.8,317.67083398570645L889.9916666666666,316.41723873921285L902.1833333333334,316.6605375789945L914.375,315.6886239166233L926.5666666666666,317.2281550037499L938.7583333333334,316.3946509791486L950.95,317.89109764262236L963.1416666666667,318.42682596438834L975.3333333333333,317.59889812878316L987.5250000000001,320.3437460709054L999.7166666666667,317.9410064066044L1011.9083333333333,319.4379334138257L1024.1,319.0182161877323L1036.2916666666667,318.42006042087615L1048.4833333333333,319.64851944274886L1060.675,317.5154563097296L1072.8666666666666,317.9031334866927L1085.0583333333334,321.40975691044656L1097.25,321.47405698528996L1109.4416666666666,320.6485468905703L1121.6333333333334,321.10466353252787L1133.825,313.6516478759008L1146.0166666666667,317.59902544802895L1158.2083333333333,318.8432969865551L1170.4,321.72620572157564L1182.5916666666667,323.1942951175596L1194.7833333333333,315.2008621162728L1206.975,321.2680042393095L1219.1666666666667,321.65529723120517L1231.3583333333333,321.37207486147213L1243.55,320.6317902622506L1255.7416666666666,323.63698381369557L1267.9333333333334,322.15349397767056L1280.125,321.97898829769827L1292.3166666666666,323.2482703953557L1304.5083333333334,322.9142665154144L1316.7,323.41186358814974L1328.8916666666667,321.7569860443612" style="fill: none;" fill="none"></path></g><g><path stroke="rgb(0, 119, 187)" stroke-width="2px" d="M134.10833333333332,-65.16668210124357L146.3,24.41951687710872L158.49166666666667,79.1473937974323L170.68333333333334,127.99053102290267L182.875,160.33273500694042L195.06666666666666,180.89319360317052L207.25833333333333,194.1973859611544L219.45,205.50829061645481L231.64166666666665,216.77037484760868L243.83333333333331,228.38132913735635L256.025,238.75412603510793L268.21666666666664,250.98988924641174L280.40833333333336,262.4012684955051L292.6,271.9452611658994L304.7916666666667,278.8343510156582L316.98333333333335,283.9992028194866L329.175,288.8595259875001L341.3666666666667,291.63930876803454L353.55833333333334,294.6410351357805L365.75,297.1340786955238L377.9416666666667,298.6983287593848L390.1333333333333,300.1323293995084L402.32500000000005,302.0392869123009L414.51666666666665,303.53714806226947L426.70833333333337,305.09043248275736L438.9,304.83039238147734L451.0916666666667,306.9263539144198L463.2833333333333,308.3314020762522L475.475,308.017219078033L487.66666666666663,309.49623577048624L499.85833333333335,309.9470990153791L512.05,310.3677341894913L524.2416666666667,312.3538254465671L536.4333333333333,312.68961134602864L548.625,311.20952830437125L560.8166666666667,313.596181658652L573.0083333333333,314.52044284379343L585.2,314.47584742815206L597.3916666666667,315.1222996892607L609.5833333333334,315.28337375389475L621.775,315.9327688261949L633.9666666666667,317.0205286650065L646.1583333333333,316.76783259047386L658.35,316.8512435656888L670.5416666666666,315.9770825978893L682.7333333333333,317.32846440817116L694.925,318.29272423654515L707.1166666666667,317.53737106821194L719.3083333333333,318.2823077258899L731.5,318.1780104479846L743.6916666666666,317.84479396887036L755.8833333333334,319.2267890547497L768.075,317.8525480450817L780.2666666666667,319.40771934025656L792.4583333333333,320.03697278394844L804.6500000000001,318.0201645474189L816.8416666666667,320.2392673301377L829.0333333333333,318.99025957495724L841.2249999999999,320.85415506890223L853.4166666666667,319.35502227712936L865.6083333333333,321.31717111664636L877.8,319.7372690398005L889.9916666666666,320.8611868072642L902.1833333333334,319.8682527388619L914.375,321.5993556498185L926.5666666666666,321.2382925842361L938.7583333333334,321.59993883386994L950.95,321.3339972900443L963.1416666666667,320.75462606572785L975.3333333333333,322.43978090131003L987.5250000000001,322.5859310772531L999.7166666666667,321.1060021664527L1011.9083333333333,321.229002495784L1024.1,322.254165763575L1036.2916666666667,322.9409630764065L1048.4833333333333,322.4059158293719L1060.675,322.18797321503394L1072.8666666666666,322.7257744478557L1085.0583333333334,322.8536465885419L1097.25,323.80598094541386L1109.4416666666666,323.9339265644023L1121.6333333333334,323.77720211960565L1133.825,323.98861006234665L1146.0166666666667,322.56349165465L1158.2083333333333,323.64568290339395L1170.4,324.2075021629687L1182.5916666666667,323.6786868313214L1194.7833333333333,324.43530426438974L1206.975,323.84921224468565L1219.1666666666667,324.73122953881625L1231.3583333333333,324.89856183187266L1243.55,324.05831433300034L1255.7416666666666,324.1468850535399L1267.9333333333334,323.8695908032008L1280.125,324.8618227785925L1292.3166666666666,324.60937262040113L1304.5083333333334,325.07567341948857L1316.7,324.7198228319604L1328.8916666666667,324.04030809549744" style="fill: none;" fill="none"></path></g></g></g></g></g></g><g transform="translate(50, 378)" clip-path="url(#clip_1)"><clipPath id="clip_1"><rect width="1463" height="22"></rect></clipPath><g><g><line x1="0" y1="0" x2="0" y2="5" style="visibility: inherit;" fill="rgb(0, 0, 0)" stroke="rgb(204, 204, 204)" stroke-width="1px"></line><line x1="121.91666666666666" y1="0" x2="121.91666666666666" y2="5" style="visibility: inherit;" fill="rgb(0, 0, 0)" stroke="rgb(204, 204, 204)" stroke-width="1px"></line><line x1="243.83333333333331" y1="0" x2="243.83333333333331" y2="5" style="visibility: inherit;" fill="rgb(0, 0, 0)" stroke="rgb(204, 204, 204)" stroke-width="1px"></line><line x1="365.75" y1="0" x2="365.75" y2="5" style="visibility: inherit;" fill="rgb(0, 0, 0)" stroke="rgb(204, 204, 204)" stroke-width="1px"></line><line x1="487.66666666666663" y1="0" x2="487.66666666666663" y2="5" style="visibility: inherit;" fill="rgb(0, 0, 0)" stroke="rgb(204, 204, 204)" stroke-width="1px"></line><line x1="609.5833333333334" y1="0" x2="609.5833333333334" y2="5" style="visibility: inherit;" fill="rgb(0, 0, 0)" stroke="rgb(204, 204, 204)" stroke-width="1px"></line><line x1="731.5" y1="0" x2="731.5" y2="5" style="visibility: inherit;" fill="rgb(0, 0, 0)" stroke="rgb(204, 204, 204)" stroke-width="1px"></line><line x1="853.4166666666667" y1="0" x2="853.4166666666667" y2="5" style="visibility: inherit;" fill="rgb(0, 0, 0)" stroke="rgb(204, 204, 204)" stroke-width="1px"></line><line x1="975.3333333333333" y1="0" x2="975.3333333333333" y2="5" style="visibility: inherit;" fill="rgb(0, 0, 0)" stroke="rgb(204, 204, 204)" stroke-width="1px"></line><line x1="1097.25" y1="0" x2="1097.25" y2="5" style="visibility: inherit;" fill="rgb(0, 0, 0)" stroke="rgb(204, 204, 204)" stroke-width="1px"></line><line x1="1219.1666666666667" y1="0" x2="1219.1666666666667" y2="5" style="visibility: inherit;" fill="rgb(0, 0, 0)" stroke="rgb(204, 204, 204)" stroke-width="1px"></line><line x1="1341.0833333333333" y1="0" x2="1341.0833333333333" y2="5" style="visibility: inherit;" fill="rgb(0, 0, 0)" stroke="rgb(204, 204, 204)" stroke-width="1px"></line><line x1="1463" y1="0" x2="1463" y2="5" style="visibility: inherit;" fill="rgb(0, 0, 0)" stroke="rgb(204, 204, 204)" stroke-width="1px"></line></g><g transform="translate(0, 8)"><text x="0" y="0" dx="0em" dy="0.95em" style="text-anchor: middle; visibility: hidden; font-family: &quot;Helvetica Neue&quot;, sans-serif; font-size: 12px; font-weight: 200;" fill="rgb(50, 49, 63)" stroke="none" stroke-width="1px">-10</text><text x="121.91666666666666" y="0" dx="0em" dy="0.95em" style="text-anchor: middle; visibility: inherit; font-family: &quot;Helvetica Neue&quot;, sans-serif; font-size: 12px; font-weight: 200;" fill="rgb(50, 49, 63)" stroke="none" stroke-width="1px">0</text><text x="243.83333333333331" y="0" dx="0em" dy="0.95em" style="text-anchor: middle; visibility: inherit; font-family: &quot;Helvetica Neue&quot;, sans-serif; font-size: 12px; font-weight: 200;" fill="rgb(50, 49, 63)" stroke="none" stroke-width="1px">10</text><text x="365.75" y="0" dx="0em" dy="0.95em" style="text-anchor: middle; visibility: inherit; font-family: &quot;Helvetica Neue&quot;, sans-serif; font-size: 12px; font-weight: 200;" fill="rgb(50, 49, 63)" stroke="none" stroke-width="1px">20</text><text x="487.66666666666663" y="0" dx="0em" dy="0.95em" style="text-anchor: middle; visibility: inherit; font-family: &quot;Helvetica Neue&quot;, sans-serif; font-size: 12px; font-weight: 200;" fill="rgb(50, 49, 63)" stroke="none" stroke-width="1px">30</text><text x="609.5833333333334" y="0" dx="0em" dy="0.95em" style="text-anchor: middle; visibility: inherit; font-family: &quot;Helvetica Neue&quot;, sans-serif; font-size: 12px; font-weight: 200;" fill="rgb(50, 49, 63)" stroke="none" stroke-width="1px">40</text><text x="731.5" y="0" dx="0em" dy="0.95em" style="text-anchor: middle; visibility: inherit; font-family: &quot;Helvetica Neue&quot;, sans-serif; font-size: 12px; font-weight: 200;" fill="rgb(50, 49, 63)" stroke="none" stroke-width="1px">50</text><text x="853.4166666666667" y="0" dx="0em" dy="0.95em" style="text-anchor: middle; visibility: inherit; font-family: &quot;Helvetica Neue&quot;, sans-serif; font-size: 12px; font-weight: 200;" fill="rgb(50, 49, 63)" stroke="none" stroke-width="1px">60</text><text x="975.3333333333333" y="0" dx="0em" dy="0.95em" style="text-anchor: middle; visibility: inherit; font-family: &quot;Helvetica Neue&quot;, sans-serif; font-size: 12px; font-weight: 200;" fill="rgb(50, 49, 63)" stroke="none" stroke-width="1px">70</text><text x="1097.25" y="0" dx="0em" dy="0.95em" style="text-anchor: middle; visibility: inherit; font-family: &quot;Helvetica Neue&quot;, sans-serif; font-size: 12px; font-weight: 200;" fill="rgb(50, 49, 63)" stroke="none" stroke-width="1px">80</text><text x="1219.1666666666667" y="0" dx="0em" dy="0.95em" style="text-anchor: middle; visibility: inherit; font-family: &quot;Helvetica Neue&quot;, sans-serif; font-size: 12px; font-weight: 200;" fill="rgb(50, 49, 63)" stroke="none" stroke-width="1px">90</text><text x="1341.0833333333333" y="0" dx="0em" dy="0.95em" style="text-anchor: middle; visibility: inherit; font-family: &quot;Helvetica Neue&quot;, sans-serif; font-size: 12px; font-weight: 200;" fill="rgb(50, 49, 63)" stroke="none" stroke-width="1px">100</text><text x="1463" y="0" dx="0em" dy="0.95em" style="text-anchor: middle; visibility: hidden; font-family: &quot;Helvetica Neue&quot;, sans-serif; font-size: 12px; font-weight: 200;" fill="rgb(50, 49, 63)" stroke="none" stroke-width="1px">110</text></g><line x1="0" y1="0" x2="1463" y2="0" fill="rgb(0, 0, 0)" stroke="rgb(204, 204, 204)" stroke-width="1px"></line></g></g></g></g></svg>