<svg viewBox="0 0 1513 400" xmlns="http://www.w3.org/2000/svg"><g><g><g><g><g><line x1="50" y1="366.2529667932953" x2="45" y2="366.2529667932953" style="visibility: inherit;" fill="rgb(0, 0, 0)" stroke="rgb(204, 204, 204)" stroke-width="1px"></line><line x1="50" y1="347.8791769583601" x2="45" y2="347.8791769583601" style="visibility: inherit;" fill="rgb(0, 0, 0)" stroke="rgb(204, 204, 204)" stroke-width="1px"></line><line x1="50" y1="332.866697560319" x2="45" y2="332.866697560319" style="visibility: inherit;" fill="rgb(0, 0, 0)" stroke="rgb(204, 204, 204)" stroke-width="1px"></line><line x1="50" y1="320.1738270857867" x2="45" y2="320.1738270857867" style="visibility: inherit;" fill="rgb(0, 0, 0)" stroke="rgb(204, 204, 204)" stroke-width="1px"></line><line x1="50" y1="309.17876256342265" x2="45" y2="309.17876256342265" style="visibility: inherit;" fill="rgb(0, 0, 0)" stroke="rgb(204, 204, 204)" stroke-width="1px"></line><line x1="50" y1="299.4804283273427" x2="45" y2="299.4804283273427" style="visibility: inherit;" fill="rgb(0, 0, 0)" stroke="rgb(204, 204, 204)" stroke-width="1px"></line><line x1="50" y1="290.8049727284875" x2="45" y2="290.8049727284875" style="visibility: inherit;" fill="rgb(0, 0, 0)" stroke="rgb(204, 204, 204)" stroke-width="1px"></line><line x1="50" y1="233.73076849861482" x2="45" y2="233.73076849861482" style="visibility: inherit;" fill="rgb(0, 0, 0)" stroke="rgb(204, 204, 204)" stroke-width="1px"></line><line x1="50" y1="200.34449926563855" x2="45" y2="200.34449926563855" style="visibility: inherit;" fill="rgb(0, 0, 0)" stroke="rgb(204, 204, 204)" stroke-width="1px"></line><line x1="50" y1="176.6565642687422" x2="45" y2="176.6565642687422" style="visibility: inherit;" fill="rgb(0, 0, 0)" stroke="rgb(204, 204, 204)" stroke-width="1px"></line><line x1="50" y1="158.28277443380705" x2="45" y2="158.28277443380705" style="visibility: inherit;" fill="rgb(0, 0, 0)" stroke="rgb(204, 204, 204)" stroke-width="1px"></line><line x1="50" y1="143.27029503576586" x2="45" y2="143.27029503576586" style="visibility: inherit;" fill="rgb(0, 0, 0)" stroke="rgb(204, 204, 204)" stroke-width="1px"></line><line x1="50" y1="130.57742456123358" x2="45" y2="130.57742456123358" style="visibility: inherit;" fill="rgb(0, 0, 0)" stroke="rgb(204, 204, 204)" stroke-width="1px"></line><line x1="50" y1="119.58236003886952" x2="45" y2="119.58236003886952" style="visibility: inherit;" fill="rgb(0, 0, 0)" stroke="rgb(204, 204, 204)" stroke-width="1px"></line><line x1="50" y1="109.88402580278961" x2="45" y2="109.88402580278961" style="visibility: inherit;" fill="rgb(0, 0, 0)" stroke="rgb(204, 204, 204)" stroke-width="1px"></line><line x1="50" y1="101.20857020393436" x2="45" y2="101.20857020393436" style="visibility: inherit;" fill="rgb(0, 0, 0)" stroke="rgb(204, 204, 204)" stroke-width="1px"></line><line x1="50" y1="44.13436597406172" x2="45" y2="44.13436597406172" style="visibility: inherit;" fill="rgb(0, 0, 0)" stroke="rgb(204, 204, 204)" stroke-width="1px"></line><line x1="50" y1="10.748096741085476" x2="45" y2="10.748096741085476" style="visibility: inherit;" fill="rgb(0, 0, 0)" stroke="rgb(204, 204, 204)" stroke-width="1px"></line></g><g transform="translate(40, 0)"><text x="0" y="366.2529667932953" dx="0em" dy="0.3em" style="text-anchor: end; visibility: inherit; font-family: &quot;Helvetica Neue&quot;, sans-serif; font-size: 12px; font-weight: 200;" fill="rgb(50, 49, 63)" stroke="none" stroke-width="1px">4e-3</text><text x="0" y="347.8791769583601" dx="0em" dy="0.3em" style="text-anchor: end; visibility: hidden; font-family: &quot;Helvetica Neue&quot;, sans-serif; font-size: 12px; font-weight: 200;" fill="rgb(50, 49, 63)" stroke="none" stroke-width="1px">5e-3</text><text x="0" y="332.866697560319" dx="0em" dy="0.3em" style="text-anchor: end; visibility: hidden; font-family: &quot;Helvetica Neue&quot;, sans-serif; font-size: 12px; font-weight: 200;" fill="rgb(50, 49, 63)" stroke="none" stroke-width="1px">6e-3</text><text x="0" y="320.1738270857867" dx="0em" dy="0.3em" style="text-anchor: end; visibility: inherit; font-family: &quot;Helvetica Neue&quot;, sans-serif; font-size: 12px; font-weight: 200;" fill="rgb(50, 49, 63)" stroke="none" stroke-width="1px">7e-3</text><text x="0" y="309.17876256342265" dx="0em" dy="0.3em" style="text-anchor: end; visibility: hidden; font-family: &quot;Helvetica Neue&quot;, sans-serif; font-size: 12px; font-weight: 200;" fill="rgb(50, 49, 63)" stroke="none" stroke-width="1px">8e-3</text><text x="0" y="299.4804283273427" dx="0em" dy="0.3em" style="text-anchor: end; visibility: hidden; font-family: &quot;Helvetica Neue&quot;, sans-serif; font-size: 12px; font-weight: 200;" fill="rgb(50, 49, 63)" stroke="none" stroke-width="1px">9e-3</text><text x="0" y="290.8049727284875" dx="0em" dy="0.3em" style="text-anchor: end; visibility: inherit; font-family: &quot;Helvetica Neue&quot;, sans-serif; font-size: 12px; font-weight: 200;" fill="rgb(50, 49, 63)" stroke="none" stroke-width="1px">0.01</text><text x="0" y="233.73076849861482" dx="0em" dy="0.3em" style="text-anchor: end; visibility: hidden; font-family: &quot;Helvetica Neue&quot;, sans-serif; font-size: 12px; font-weight: 200;" fill="rgb(50, 49, 63)" stroke="none" stroke-width="1px">0.02</text><text x="0" y="200.34449926563855" dx="0em" dy="0.3em" style="text-anchor: end; visibility: hidden; font-family: &quot;Helvetica Neue&quot;, sans-serif; font-size: 12px; font-weight: 200;" fill="rgb(50, 49, 63)" stroke="none" stroke-width="1px">0.03</text><text x="0" y="176.6565642687422" dx="0em" dy="0.3em" style="text-anchor: end; visibility: inherit; font-family: &quot;Helvetica Neue&quot;, sans-serif; font-size: 12px; font-weight: 200;" fill="rgb(50, 49, 63)" stroke="none" stroke-width="1px">0.04</text><text x="0" y="158.28277443380705" dx="0em" dy="0.3em" style="text-anchor: end; visibility: hidden; font-family: &quot;Helvetica Neue&quot;, sans-serif; font-size: 12px; font-weight: 200;" fill="rgb(50, 49, 63)" stroke="none" stroke-width="1px">0.05</text><text x="0" y="143.27029503576586" dx="0em" dy="0.3em" style="text-anchor: end; visibility: hidden; font-family: &quot;Helvetica Neue&quot;, sans-serif; font-size: 12px; font-weight: 200;" fill="rgb(50, 49, 63)" stroke="none" stroke-width="1px">0.06</text><text x="0" y="130.57742456123358" dx="0em" dy="0.3em" style="text-anchor: end; visibility: inherit; font-family: &quot;Helvetica Neue&quot;, sans-serif; font-size: 12px; font-weight: 200;" fill="rgb(50, 49, 63)" stroke="none" stroke-width="1px">0.07</text><text x="0" y="119.58236003886952" dx="0em" dy="0.3em" style="text-anchor: end; visibility: hidden; font-family: &quot;Helvetica Neue&quot;, sans-serif; font-size: 12px; font-weight: 200;" fill="rgb(50, 49, 63)" stroke="none" stroke-width="1px">0.08</text><text x="0" y="109.88402580278961" dx="0em" dy="0.3em" style="text-anchor: end; visibility: hidden; font-family: &quot;Helvetica Neue&quot;, sans-serif; font-size: 12px; font-weight: 200;" fill="rgb(50, 49, 63)" stroke="none" stroke-width="1px">0.09</text><text x="0" y="101.20857020393436" dx="0em" dy="0.3em" style="text-anchor: end; visibility: inherit; font-family: &quot;Helvetica Neue&quot;, sans-serif; font-size: 12px; font-weight: 200;" fill="rgb(50, 49, 63)" stroke="none" stroke-width="1px">0.1</text><text x="0" y="44.13436597406172" dx="0em" dy="0.3em" style="text-anchor: end; visibility: hidden; font-family: &quot;Helvetica Neue&quot;, sans-serif; font-size: 12px; font-weight: 200;" fill="rgb(50, 49, 63)" stroke="none" stroke-width="1px">0.2</text><text x="0" y="10.748096741085476" dx="0em" dy="0.3em" style="text-anchor: end; visibility: hidden; font-family: &quot;Helvetica Neue&quot;, sans-serif; font-size: 12px; font-weight: 200;" fill="rgb(50, 49, 63)" stroke="none" stroke-width="1px">0.3</text></g><line x1="50" y1="0" x2="50" y2="378" fill="rgb(0, 0, 0)" stroke="rgb(204, 204, 204)" stroke-width="1px"></line></g></g><g transform="translate(50, 0)" clip-path="url(#clip_0)"><clipPath id="clip_0"><rect width="1463" height="378"></rect></clipPath><g><g><g><line x1="0" y1="0" x2="0" y2="378" fill="rgb(0, 0, 0)" stroke="rgb(60, 60, 60)" stroke-width="1px" opacity="0.25"></line><line x1="121.91666666666666" y1="0" x2="121.91666666666666" y2="378" fill="rgb(0, 0, 0)" stroke="rgb(60, 60, 60)" stroke-width="1px" opacity="0.25"></line><line x1="243.83333333333331" y1="0" x2="243.83333333333331" y2="378" fill="rgb(0, 0, 0)" stroke="rgb(60, 60, 60)" stroke-width="1px" opacity="0.25"></line><line x1="365.75" y1="0" x2="365.75" y2="378" fill="rgb(0, 0, 0)" stroke="rgb(60, 60, 60)" stroke-width="1px" opacity="0.25"></line><line x1="487.66666666666663" y1="0" x2="487.66666666666663" y2="378" fill="rgb(0, 0, 0)" stroke="rgb(60, 60, 60)" stroke-width="1px" opacity="0.25"></line><line x1="609.5833333333334" y1="0" x2="609.5833333333334" y2="378" fill="rgb(0, 0, 0)" stroke="rgb(60, 60, 60)" stroke-width="1px" opacity="0.25"></line><line x1="731.5" y1="0" x2="731.5" y2="378" fill="rgb(0, 0, 0)" stroke="rgb(60, 60, 60)" stroke-width="1px" opacity="0.25"></line><line x1="853.4166666666667" y1="0" x2="853.4166666666667" y2="378" fill="rgb(0, 0, 0)" stroke="rgb(60, 60, 60)" stroke-width="1px" opacity="0.25"></line><line x1="975.3333333333333" y1="0" x2="975.3333333333333" y2="378" fill="rgb(0, 0, 0)" stroke="rgb(60, 60, 60)" stroke-width="1px" opacity="0.25"></line><line x1="1097.25" y1="0" x2="1097.25" y2="378" fill="rgb(0, 0, 0)" stroke="rgb(60, 60, 60)" stroke-width="1px" opacity="0.25"></line><line x1="1219.1666666666667" y1="0" x2="1219.1666666666667" y2="378" fill="rgb(0, 0, 0)" stroke="rgb(60, 60, 60)" stroke-width="1px" opacity="0.25"></line><line x1="1341.0833333333333" y1="0" x2="1341.0833333333333" y2="378" fill="rgb(0, 0, 0)" stroke="rgb(60, 60, 60)" stroke-width="1px" opacity="0.25"></line><line x1="1463" y1="0" x2="1463" y2="378" fill="rgb(0, 0, 0)" stroke="rgb(60, 60, 60)" stroke-width="1px" opacity="0.25"></line></g><g><line x1="0" y1="366.2529667932953" x2="1463" y2="366.2529667932953" fill="rgb(0, 0, 0)" stroke="rgb(60, 60, 60)" stroke-width="1px" opacity="0.25"></line><line x1="0" y1="347.8791769583601" x2="1463" y2="347.8791769583601" fill="rgb(0, 0, 0)" stroke="rgb(60, 60, 60)" stroke-width="1px" opacity="0.25"></line><line x1="0" y1="332.866697560319" x2="1463" y2="332.866697560319" fill="rgb(0, 0, 0)" stroke="rgb(60, 60, 60)" stroke-width="1px" opacity="0.25"></line><line x1="0" y1="320.1738270857867" x2="1463" y2="320.1738270857867" fill="rgb(0, 0, 0)" stroke="rgb(60, 60, 60)" stroke-width="1px" opacity="0.25"></line><line x1="0" y1="309.17876256342265" x2="1463" y2="309.17876256342265" fill="rgb(0, 0, 0)" stroke="rgb(60, 60, 60)" stroke-width="1px" opacity="0.25"></line><line x1="0" y1="299.4804283273427" x2="1463" y2="299.4804283273427" fill="rgb(0, 0, 0)" stroke="rgb(60, 60, 60)" stroke-width="1px" opacity="0.25"></line><line x1="0" y1="290.8049727284875" x2="1463" y2="290.8049727284875" fill="rgb(0, 0, 0)" stroke="rgb(60, 60, 60)" stroke-width="1px" opacity="0.25"></line><line x1="0" y1="233.73076849861482" x2="1463" y2="233.73076849861482" fill="rgb(0, 0, 0)" stroke="rgb(60, 60, 60)" stroke-width="1px" opacity="0.25"></line><line x1="0" y1="200.34449926563855" x2="1463" y2="200.34449926563855" fill="rgb(0, 0, 0)" stroke="rgb(60, 60, 60)" stroke-width="1px" opacity="0.25"></line><line x1="0" y1="176.6565642687422" x2="1463" y2="176.6565642687422" fill="rgb(0, 0, 0)" stroke="rgb(60, 60, 60)" stroke-width="1px" opacity="0.25"></line><line x1="0" y1="158.28277443380705" x2="1463" y2="158.28277443380705" fill="rgb(0, 0, 0)" stroke="rgb(60, 60, 60)" stroke-width="1px" opacity="0.25"></line><line x1="0" y1="143.27029503576586" x2="1463" y2="143.27029503576586" fill="rgb(0, 0, 0)" stroke="rgb(60, 60, 60)" stroke-width="1px" opacity="0.25"></line><line x1="0" y1="130.57742456123358" x2="1463" y2="130.57742456123358" fill="rgb(0, 0, 0)" stroke="rgb(60, 60, 60)" stroke-width="1px" opacity="0.25"></line><line x1="0" y1="119.58236003886952" x2="1463" y2="119.58236003886952" fill="rgb(0, 0, 0)" stroke="rgb(60, 60, 60)" stroke-width="1px" opacity="0.25"></line><line x1="0" y1="109.88402580278961" x2="1463" y2="109.88402580278961" fill="rgb(0, 0, 0)" stroke="rgb(60, 60, 60)" stroke-width="1px" opacity="0.25"></line><line x1="0" y1="101.20857020393436" x2="1463" y2="101.20857020393436" fill="rgb(0, 0, 0)" stroke="rgb(60, 60, 60)" stroke-width="1px" opacity="0.25"></line><line x1="0" y1="44.13436597406172" x2="1463" y2="44.13436597406172" fill="rgb(0, 0, 0)" stroke="rgb(60, 60, 60)" stroke-width="1px" opacity="0.25"></line><line x1="0" y1="10.748096741085476" x2="1463" y2="10.748096741085476" fill="rgb(0, 0, 0)" stroke="rgb(60, 60, 60)" stroke-width="1px" opacity="0.25"></line></g></g></g><g><g><line x1="121.91666666666666" y1="0" x2="121.91666666666666" y2="378" fill="rgb(0, 0, 0)" stroke="rgb(153, 153, 153)" stroke-width="1.5px"></line></g></g><g><g><g><g><g><path stroke="rgb(0, 119, 187)" stroke-width="2px" d="M121.91666666666666,54L134.10833333333332,83.87893008715344L146.3,110.82157815716022L158.49166666666667,138.88333109937355L170.68333333333334,162.67011403672726L182.875,182.54467886437877L195.06666666666666,199.28804508439055L207.25833333333333,211.37823298393786L219.45,220.38204149936772L231.64166666666665,227.40612696516263L243.83333333333331,232.6503904732667L256.025,237.15848818181277L268.21666666666664,240.34261335416858L280.40833333333336,242.62106750644273L292.6,246.05953044259172L304.7916666666667,247.6955833187085L316.98333333333335,250.3961624805024L329.175,253.45528042677262L341.3666666666667,255.65625024721788L353.55833333333334,257.2920585276432L365.75,258.863250830658L377.9416666666667,259.8789432431399L390.1333333333333,260.3702818744142L402.32500000000005,262.4321994083201L414.51666666666665,263.799882283358L426.70833333333337,265.67086923891424L438.9,267.3062289128005L451.0916666666667,268.82603916339434L463.2833333333333,270.2687219248729L475.475,269.6719163925583L487.66666666666663,269.85556493937395L499.85833333333335,271.88577141173494L512.05,272.5138723422015L524.2416666666667,271.8364889704808L536.4333333333333,270.8351756607374L548.625,273.62943667877437L560.8166666666667,275.4790942121667L573.0083333333333,276.8409550437636L585.2,276.09177628221164L597.3916666666667,276.70198118657765L609.5833333333334,278.3333520457037L621.775,279.1273167212872L633.9666666666667,279.30556929461835L646.1583333333333,280.97359157110554L658.35,282.30554242784945L670.5416666666666,282.27627258492953L682.7333333333333,282.3714314559706L694.925,280.15228854835834L707.1166666666667,281.99360274492335L719.3083333333333,283.47169935532435L731.5,283.16736295055887L743.6916666666666,283.4843939773557L755.8833333333334,284.8974250045593L768.075,286.0965074465561L780.2666666666667,287.03964897318286L792.4583333333333,287.69416014874963L804.6500000000001,286.5544747800238L816.8416666666667,286.5866815815117L829.0333333333333,288.3769962685546L841.2249999999999,288.5444943539977L853.4166666666667,286.7466741748498L865.6083333333333,288.38493428358004L877.8,289.66019468969273L889.9916666666666,288.12431513062904L902.1833333333334,289.0927119112229L914.375,289.35428433998743L926.5666666666666,289.72812007588294L938.7583333333334,290.06860356355133L950.95,290.14393317691093L963.1416666666667,289.7221714109259L975.3333333333333,290.1625301058891L987.5250000000001,290.5564437170523L999.7166666666667,291.7558502147406L1011.9083333333333,292.3940897227475L1024.1,292.21513457932974L1036.2916666666667,293.4563083494667L1048.4833333333333,293.83303505030574L1060.675,283.84730203359027L1072.8666666666666,286.90341039858686L1085.0583333333334,288.8675019313662L1097.25,291.2552402678108L1109.4416666666666,293.16928456686855L1121.6333333333334,294.2614690219903L1133.825,294.602099171578L1146.0166666666667,294.6920494720624L1158.2083333333333,295.40044505226507L1170.4,295.39635019954414L1182.5916666666667,296.260472626992L1194.7833333333333,297.2907990599957L1206.975,297.6488245483171L1219.1666666666667,297.9480859722162L1231.3583333333333,297.51091629449735L1243.55,296.670701237172L1255.7416666666666,296.3168451816067L1267.9333333333334,297.22965016447597L1280.125,296.6489401169357L1292.3166666666666,296.8617500130196L1304.5083333333334,298.4497435176411L1316.7,299.4620020114784L1328.8916666666667,297.7176125584625" style="fill: none;" fill="none"></path></g><g><path stroke="rgb(255, 112, 67)" stroke-width="2px" d="M121.91666666666666,84.70907612210533L134.10833333333332,110.25377199511723L146.3,134.62361205871204L158.49166666666667,157.54585187986308L170.68333333333334,178.98046903606507L182.875,198.70301569796413L195.06666666666666,215.83765230439883L207.25833333333333,229.71952644270843L219.45,240.81833869366196L231.64166666666665,249.82120980076152L243.83333333333331,257.3702824387397L256.025,263.7629986863907L268.21666666666664,268.8826697300399L280.40833333333336,273.6649809677609L292.6,277.468305548065L304.7916666666667,280.96837548665803L316.98333333333335,283.9047975074287L329.175,286.6991574021014L341.3666666666667,288.86874667617985L353.55833333333334,291.1083551903066L365.75,293.0245358350393L377.9416666666667,294.7007062836095L390.1333333333333,295.82784729940204L402.32500000000005,297.02545721125625L414.51666666666665,298.04566948096283L426.70833333333337,299.13237119331995L438.9,300.14616424457347L451.0916666666667,301.26623930273905L463.2833333333333,302.55716304851626L475.475,303.3345262603052L487.66666666666663,304.5468934309716L499.85833333333335,305.5652676358956L512.05,305.7176740650285L524.2416666666667,306.73093395053365L536.4333333333333,307.8468416467919L548.625,308.34788046949177L560.8166666666667,309.02472087896706L573.0083333333333,309.1369723584919L585.2,310.0364074499205L597.3916666666667,310.86136460486836L609.5833333333334,311.4212355096905L621.775,311.82646386647355L633.9666666666667,312.4514666171402L646.1583333333333,312.74633326921935L658.35,313.1795790060842L670.5416666666666,313.50891710682185L682.7333333333333,313.93838497483546L694.925,314.4778671473843L707.1166666666667,314.507898534535L719.3083333333333,315.1946835631487L731.5,315.8323722574699L743.6916666666666,316.2496933599277L755.8833333333334,316.3156831413777L768.075,316.4293014156308L780.2666666666667,316.4134707497983L792.4583333333333,316.7658259258162L804.6500000000001,316.9689070476294L816.8416666666667,317.1660275680799L829.0333333333333,317.72495495432906L841.2249999999999,318.0408487149941L853.4166666666667,318.229416892882L865.6083333333333,318.57484841299123L877.8,318.70905056619654L889.9916666666666,318.83628332231086L902.1833333333334,318.88101155591363L914.375,319.2648448581753L926.5666666666666,319.3740363106449L938.7583333333334,319.22863436030656L950.95,319.2890325085397L963.1416666666667,319.4739491431926L975.3333333333333,320.1814229302533L987.5250000000001,320.03757627506565L999.7166666666667,319.62425767095243L1011.9083333333333,320.4107658371484L1024.1,320.8223634798774L1036.2916666666667,320.9580956300582L1048.4833333333333,320.8722877021596L1060.675,321.3805573378139L1072.8666666666666,321.3620417244052L1085.0583333333334,321.4715591746275L1097.25,321.6282136626977L1109.4416666666666,322.1265459723445L1121.6333333333334,321.9648685186345L1133.825,322.16336777374823L1146.0166666666667,322.39293435147016L1158.2083333333333,322.5879655685876L1170.4,321.9694388699217L1182.5916666666667,322.1452616422662L1194.7833333333333,322.3529833234586L1206.975,322.548872332824L1219.1666666666667,322.70623754330586L1231.3583333333333,322.8619196032139L1243.55,323.1224915934853L1255.7416666666666,323.126037186472L1267.9333333333334,323.2015753003229L1280.125,323.4276302046105L1292.3166666666666,323.71214971813504L1304.5083333333334,323.464409517451L1316.7,323.6810663134178L1328.8916666666667,324" style="fill: none;" fill="none"></path></g></g></g></g><g opacity="0.2"><g><g><g><path stroke="rgb(0, 119, 187)" stroke-width="2px" d="M121.91666666666666,54L134.10833333333332,108.94732237962018L146.3,149.0763649018375L158.49166666666667,192.33972984391463L170.68333333333334,210.01540175932269L182.875,221.59444215269482L195.06666666666666,231.34187157894192L207.25833333333333,232.9630174004627L219.45,235.76571972355268L231.64166666666665,239.0841910265888L243.83333333333331,241.1472890592718L256.025,244.39263124666735L268.21666666666664,245.35102848490854L280.40833333333336,246.15678432412037L292.6,251.49801467810312L304.7916666666667,250.21107554032295L316.98333333333335,254.61951322329776L329.175,258.2673840682524L341.3666666666667,259.07175336841L353.55833333333334,259.8082107504738L365.75,261.27763536651867L377.9416666666667,261.4263326270822L390.1333333333333,261.11282141855503L402.32500000000005,265.6252182016321L414.51666666666665,265.89495841659226L426.70833333333337,268.55955278547736L438.9,269.82182477161683L451.0916666666667,271.1596802472798L463.2833333333333,272.48127574732564L475.475,268.7847414553411L487.66666666666663,270.13180799094744L499.85833333333335,275.0281396075454L512.05,273.46509957045714L524.2416666666667,270.83074926758604L536.4333333333333,269.3556731400595L548.625,278.0070919196123L560.8166666666667,278.3338994088183L573.0083333333333,278.926933885423L585.2,274.98063593082554L597.3916666666667,277.6258521187212L609.5833333333334,280.8426600706646L621.775,280.3328054760723L633.9666666666667,279.573673782807L646.1583333333333,283.54074524421213L658.35,284.34475958560586L670.5416666666666,282.2323873199822L682.7333333333333,282.5143762792601L694.925,276.9318367891104L707.1166666666667,284.8351588485188L719.3083333333333,285.73981725634945L731.5,282.7129570936462L743.6916666666666,283.96224104189656L755.8833333333334,287.06350517806214L768.075,287.9285212065234L780.2666666666667,288.4749312961825L792.4583333333333,288.68578637959865L804.6500000000001,284.8739889306079L816.8416666666667,286.6350154161869L829.0333333333333,291.1376411936495L841.2249999999999,288.7963820813985L853.4166666666667,284.121467968978L865.6083333333333,290.905110307347L877.8,291.61090049228034L889.9916666666666,285.87291112075445L902.1833333333334,290.567002544564L914.375,289.7482076252134L926.5666666666666,290.2920754274875L938.7583333333334,290.5819832869393L950.95,290.2570569713919L963.1416666666667,289.09355192249365L975.3333333333333,290.8275155894026L987.5250000000001,291.15087019906076L999.7166666666667,293.5883682877478L1011.9083333333333,293.3608218161394L1024.1,291.9474290056967L1036.2916666666667,295.3538694147211L1048.4833333333333,294.4013767139635L1060.675,270.8271994510733L1072.8666666666666,291.71138596079317L1085.0583333333334,291.9043783593952L1097.25,294.9719169804034L1109.4416666666666,296.12645223543353L1121.6333333333334,295.9273987279578L1133.825,295.1157011815129L1146.0166666666667,294.8271594350513L1158.2083333333333,296.4745983486925L1170.4,295.3902083022616L1182.5916666666667,297.5739013847279L1194.7833333333333,298.86087291083174L1206.975,298.1887986817071L1219.1666666666667,298.3990273774684L1231.3583333333333,296.8594831887386L1243.55,295.4262387827265L1255.7416666666666,295.7888961447221L1267.9333333333334,298.6181160290638L1280.125,295.7854825923572L1292.3166666666666,297.18199968998215L1304.5083333333334,300.89067627832986L1316.7,301.00411220731115L1328.8916666666667,295.16842060989" style="fill: none;" fill="none"></path></g><g><path stroke="rgb(255, 112, 67)" stroke-width="2px" d="M121.91666666666666,84.70907612210533L134.10833333333332,130.5271600116289L146.3,167.6784299061906L158.49166666666667,196.5745139494363L170.68333333333334,219.43956169819165L182.875,237.32414440591202L195.06666666666666,248.91221439973762L207.25833333333333,255.37877677818665L219.45,260.5214423509893L231.64166666666665,265.3186761731584L243.83333333333331,270.0914644524187L256.025,274.35035875362354L268.21666666666664,277.19444225632134L280.40833333333336,281.3927571093779L292.6,283.5195304471137L304.7916666666667,286.5116099973538L316.98333333333335,288.5142936006354L329.175,291.0762134656573L341.3666666666667,292.2338863578058L353.55833333333334,294.5860835967894L365.75,295.98499322071217L377.9416666666667,297.28067146143087L390.1333333333333,297.5480044700233L402.32500000000005,298.8551647922771L414.51666666666665,299.6000803326226L426.70833333333337,300.78979260378446L438.9,301.690646200019L451.0916666666667,302.9754469310543L463.2833333333333,304.5323073474278L475.475,304.514506811733L487.66666666666663,306.3995853519426L499.85833333333335,307.11684112794944L512.05,305.9468139235641L524.2416666666667,308.27459351146047L536.4333333333333,309.54958184532506L548.625,309.1052019807028L560.8166666666667,310.05052901769045L573.0083333333333,309.3056370260553L585.2,311.40425432644656L597.3916666666667,312.11450751820905L609.5833333333334,312.26824500141834L621.775,312.43807038369647L633.9666666666667,313.3979568798763L646.1583333333333,313.1906226275022L658.35,313.83375203675877L670.5416666666666,314.0054073586816L682.7333333333333,314.5868162001608L694.925,315.29377623192454L707.1166666666667,314.5529661622832L719.3083333333333,316.23572263438155L731.5,316.79826187491227L743.6916666666666,316.87966778426363L755.8833333333334,316.41476708048884L768.075,316.6000233255523L780.2666666666667,316.3897304562897L792.4583333333333,317.2972020682331L804.6500000000001,317.27447096044796L816.8416666666667,317.4625959940564L829.0333333333333,318.57052480083354L841.2249999999999,318.5169733625583L853.4166666666667,318.5130813395851L865.6083333333333,319.0957281181597L877.8,318.910764804545L889.9916666666666,319.0275018426353L902.1833333333334,318.948149495841L914.375,319.84397064975474L926.5666666666666,319.53809546677525L938.7583333333334,319.0110117277809L950.95,319.3797128802885L963.1416666666667,319.75210507821004L975.3333333333333,321.25416329754023L987.5250000000001,319.82227637709576L999.7166666666667,319.0081439839918L1011.9083333333333,321.60479622437026L1024.1,321.4436435829591L1036.2916666666667,321.1621142992958L1048.4833333333333,320.74374324242484L1060.675,322.1488933307245L1072.8666666666666,321.3342761085729L1085.0583333333334,321.6361089552691L1097.25,321.863755637116L1109.4416666666666,322.879745378592L1121.6333333333334,321.7229460155594L1133.825,322.4620167823645L1146.0166666666667,322.73848876084463L1158.2083333333333,322.8813812932623L1170.4,321.0502742363773L1182.5916666666667,322.40970175365425L1194.7833333333333,322.6655517030759L1206.975,322.84358241813726L1219.1666666666667,322.9428507029025L1231.3583333333333,323.09599599286173L1243.55,323.5149022499756L1255.7416666666666,323.1313558622312L1267.9333333333334,323.3150125631478L1280.125,323.7678804672694L1292.3166666666666,324.1407808879857L1304.5083333333334,323.0941912246435L1316.7,324.00712415816866L1328.8916666666667,324.4807288224273" style="fill: none;" fill="none"></path></g></g></g></g></g></g><g transform="translate(50, 378)" clip-path="url(#clip_1)"><clipPath id="clip_1"><rect width="1463" height="22"></rect></clipPath><g><g><line x1="0" y1="0" x2="0" y2="5" style="visibility: inherit;" fill="rgb(0, 0, 0)" stroke="rgb(204, 204, 204)" stroke-width="1px"></line><line x1="121.91666666666666" y1="0" x2="121.91666666666666" y2="5" style="visibility: inherit;" fill="rgb(0, 0, 0)" stroke="rgb(204, 204, 204)" stroke-width="1px"></line><line x1="243.83333333333331" y1="0" x2="243.83333333333331" y2="5" style="visibility: inherit;" fill="rgb(0, 0, 0)" stroke="rgb(204, 204, 204)" stroke-width="1px"></line><line x1="365.75" y1="0" x2="365.75" y2="5" style="visibility: inherit;" fill="rgb(0, 0, 0)" stroke="rgb(204, 204, 204)" stroke-width="1px"></line><line x1="487.66666666666663" y1="0" x2="487.66666666666663" y2="5" style="visibility: inherit;" fill="rgb(0, 0, 0)" stroke="rgb(204, 204, 204)" stroke-width="1px"></line><line x1="609.5833333333334" y1="0" x2="609.5833333333334" y2="5" style="visibility: inherit;" fill="rgb(0, 0, 0)" stroke="rgb(204, 204, 204)" stroke-width="1px"></line><line x1="731.5" y1="0" x2="731.5" y2="5" style="visibility: inherit;" fill="rgb(0, 0, 0)" stroke="rgb(204, 204, 204)" stroke-width="1px"></line><line x1="853.4166666666667" y1="0" x2="853.4166666666667" y2="5" style="visibility: inherit;" fill="rgb(0, 0, 0)" stroke="rgb(204, 204, 204)" stroke-width="1px"></line><line x1="975.3333333333333" y1="0" x2="975.3333333333333" y2="5" style="visibility: inherit;" fill="rgb(0, 0, 0)" stroke="rgb(204, 204, 204)" stroke-width="1px"></line><line x1="1097.25" y1="0" x2="1097.25" y2="5" style="visibility: inherit;" fill="rgb(0, 0, 0)" stroke="rgb(204, 204, 204)" stroke-width="1px"></line><line x1="1219.1666666666667" y1="0" x2="1219.1666666666667" y2="5" style="visibility: inherit;" fill="rgb(0, 0, 0)" stroke="rgb(204, 204, 204)" stroke-width="1px"></line><line x1="1341.0833333333333" y1="0" x2="1341.0833333333333" y2="5" style="visibility: inherit;" fill="rgb(0, 0, 0)" stroke="rgb(204, 204, 204)" stroke-width="1px"></line><line x1="1463" y1="0" x2="1463" y2="5" style="visibility: inherit;" fill="rgb(0, 0, 0)" stroke="rgb(204, 204, 204)" stroke-width="1px"></line></g><g transform="translate(0, 8)"><text x="0" y="0" dx="0em" dy="0.95em" style="text-anchor: middle; visibility: hidden; font-family: &quot;Helvetica Neue&quot;, sans-serif; font-size: 12px; font-weight: 200;" fill="rgb(50, 49, 63)" stroke="none" stroke-width="1px">-10</text><text x="121.91666666666666" y="0" dx="0em" dy="0.95em" style="text-anchor: middle; visibility: inherit; font-family: &quot;Helvetica Neue&quot;, sans-serif; font-size: 12px; font-weight: 200;" fill="rgb(50, 49, 63)" stroke="none" stroke-width="1px">0</text><text x="243.83333333333331" y="0" dx="0em" dy="0.95em" style="text-anchor: middle; visibility: inherit; font-family: &quot;Helvetica Neue&quot;, sans-serif; font-size: 12px; font-weight: 200;" fill="rgb(50, 49, 63)" stroke="none" stroke-width="1px">10</text><text x="365.75" y="0" dx="0em" dy="0.95em" style="text-anchor: middle; visibility: inherit; font-family: &quot;Helvetica Neue&quot;, sans-serif; font-size: 12px; font-weight: 200;" fill="rgb(50, 49, 63)" stroke="none" stroke-width="1px">20</text><text x="487.66666666666663" y="0" dx="0em" dy="0.95em" style="text-anchor: middle; visibility: inherit; font-family: &quot;Helvetica Neue&quot;, sans-serif; font-size: 12px; font-weight: 200;" fill="rgb(50, 49, 63)" stroke="none" stroke-width="1px">30</text><text x="609.5833333333334" y="0" dx="0em" dy="0.95em" style="text-anchor: middle; visibility: inherit; font-family: &quot;Helvetica Neue&quot;, sans-serif; font-size: 12px; font-weight: 200;" fill="rgb(50, 49, 63)" stroke="none" stroke-width="1px">40</text><text x="731.5" y="0" dx="0em" dy="0.95em" style="text-anchor: middle; visibility: inherit; font-family: &quot;Helvetica Neue&quot;, sans-serif; font-size: 12px; font-weight: 200;" fill="rgb(50, 49, 63)" stroke="none" stroke-width="1px">50</text><text x="853.4166666666667" y="0" dx="0em" dy="0.95em" style="text-anchor: middle; visibility: inherit; font-family: &quot;Helvetica Neue&quot;, sans-serif; font-size: 12px; font-weight: 200;" fill="rgb(50, 49, 63)" stroke="none" stroke-width="1px">60</text><text x="975.3333333333333" y="0" dx="0em" dy="0.95em" style="text-anchor: middle; visibility: inherit; font-family: &quot;Helvetica Neue&quot;, sans-serif; font-size: 12px; font-weight: 200;" fill="rgb(50, 49, 63)" stroke="none" stroke-width="1px">70</text><text x="1097.25" y="0" dx="0em" dy="0.95em" style="text-anchor: middle; visibility: inherit; font-family: &quot;Helvetica Neue&quot;, sans-serif; font-size: 12px; font-weight: 200;" fill="rgb(50, 49, 63)" stroke="none" stroke-width="1px">80</text><text x="1219.1666666666667" y="0" dx="0em" dy="0.95em" style="text-anchor: middle; visibility: inherit; font-family: &quot;Helvetica Neue&quot;, sans-serif; font-size: 12px; font-weight: 200;" fill="rgb(50, 49, 63)" stroke="none" stroke-width="1px">90</text><text x="1341.0833333333333" y="0" dx="0em" dy="0.95em" style="text-anchor: middle; visibility: inherit; font-family: &quot;Helvetica Neue&quot;, sans-serif; font-size: 12px; font-weight: 200;" fill="rgb(50, 49, 63)" stroke="none" stroke-width="1px">100</text><text x="1463" y="0" dx="0em" dy="0.95em" style="text-anchor: middle; visibility: hidden; font-family: &quot;Helvetica Neue&quot;, sans-serif; font-size: 12px; font-weight: 200;" fill="rgb(50, 49, 63)" stroke="none" stroke-width="1px">110</text></g><line x1="0" y1="0" x2="1463" y2="0" fill="rgb(0, 0, 0)" stroke="rgb(204, 204, 204)" stroke-width="1px"></line></g></g></g></g></svg>