<svg viewBox="0 0 1513 400" xmlns="http://www.w3.org/2000/svg"><g><g><g><g><g><line x1="70" y1="378" x2="65" y2="378" style="visibility: inherit;" fill="rgb(0, 0, 0)" stroke="rgb(204, 204, 204)" stroke-width="1px"></line><line x1="70" y1="335.99999999999994" x2="65" y2="335.99999999999994" style="visibility: inherit;" fill="rgb(0, 0, 0)" stroke="rgb(204, 204, 204)" stroke-width="1px"></line><line x1="70" y1="293.99999999999994" x2="65" y2="293.99999999999994" style="visibility: inherit;" fill="rgb(0, 0, 0)" stroke="rgb(204, 204, 204)" stroke-width="1px"></line><line x1="70" y1="252.00000000000006" x2="65" y2="252.00000000000006" style="visibility: inherit;" fill="rgb(0, 0, 0)" stroke="rgb(204, 204, 204)" stroke-width="1px"></line><line x1="70" y1="210" x2="65" y2="210" style="visibility: inherit;" fill="rgb(0, 0, 0)" stroke="rgb(204, 204, 204)" stroke-width="1px"></line><line x1="70" y1="168" x2="65" y2="168" style="visibility: inherit;" fill="rgb(0, 0, 0)" stroke="rgb(204, 204, 204)" stroke-width="1px"></line><line x1="70" y1="125.99999999999997" x2="65" y2="125.99999999999997" style="visibility: inherit;" fill="rgb(0, 0, 0)" stroke="rgb(204, 204, 204)" stroke-width="1px"></line><line x1="70" y1="84.00000000000006" x2="65" y2="84.00000000000006" style="visibility: inherit;" fill="rgb(0, 0, 0)" stroke="rgb(204, 204, 204)" stroke-width="1px"></line><line x1="70" y1="42" x2="65" y2="42" style="visibility: inherit;" fill="rgb(0, 0, 0)" stroke="rgb(204, 204, 204)" stroke-width="1px"></line><line x1="70" y1="0" x2="65" y2="0" style="visibility: inherit;" fill="rgb(0, 0, 0)" stroke="rgb(204, 204, 204)" stroke-width="1px"></line></g><g transform="translate(60, 0)"><text x="0" y="378" dx="0em" dy="0.3em" style="text-anchor: end; visibility: hidden; font-family: &quot;Helvetica Neue&quot;, sans-serif; font-size: 12px; font-weight: 200;" fill="rgb(50, 49, 63)" stroke="none" stroke-width="1px">0.0115</text><text x="0" y="335.99999999999994" dx="0em" dy="0.3em" style="text-anchor: end; visibility: inherit; font-family: &quot;Helvetica Neue&quot;, sans-serif; font-size: 12px; font-weight: 200;" fill="rgb(50, 49, 63)" stroke="none" stroke-width="1px">0.012</text><text x="0" y="293.99999999999994" dx="0em" dy="0.3em" style="text-anchor: end; visibility: inherit; font-family: &quot;Helvetica Neue&quot;, sans-serif; font-size: 12px; font-weight: 200;" fill="rgb(50, 49, 63)" stroke="none" stroke-width="1px">0.0125</text><text x="0" y="252.00000000000006" dx="0em" dy="0.3em" style="text-anchor: end; visibility: inherit; font-family: &quot;Helvetica Neue&quot;, sans-serif; font-size: 12px; font-weight: 200;" fill="rgb(50, 49, 63)" stroke="none" stroke-width="1px">0.013</text><text x="0" y="210" dx="0em" dy="0.3em" style="text-anchor: end; visibility: inherit; font-family: &quot;Helvetica Neue&quot;, sans-serif; font-size: 12px; font-weight: 200;" fill="rgb(50, 49, 63)" stroke="none" stroke-width="1px">0.0135</text><text x="0" y="168" dx="0em" dy="0.3em" style="text-anchor: end; visibility: inherit; font-family: &quot;Helvetica Neue&quot;, sans-serif; font-size: 12px; font-weight: 200;" fill="rgb(50, 49, 63)" stroke="none" stroke-width="1px">0.014</text><text x="0" y="125.99999999999997" dx="0em" dy="0.3em" style="text-anchor: end; visibility: inherit; font-family: &quot;Helvetica Neue&quot;, sans-serif; font-size: 12px; font-weight: 200;" fill="rgb(50, 49, 63)" stroke="none" stroke-width="1px">0.0145</text><text x="0" y="84.00000000000006" dx="0em" dy="0.3em" style="text-anchor: end; visibility: inherit; font-family: &quot;Helvetica Neue&quot;, sans-serif; font-size: 12px; font-weight: 200;" fill="rgb(50, 49, 63)" stroke="none" stroke-width="1px">0.015</text><text x="0" y="42" dx="0em" dy="0.3em" style="text-anchor: end; visibility: inherit; font-family: &quot;Helvetica Neue&quot;, sans-serif; font-size: 12px; font-weight: 200;" fill="rgb(50, 49, 63)" stroke="none" stroke-width="1px">0.0155</text><text x="0" y="0" dx="0em" dy="0.3em" style="text-anchor: end; visibility: hidden; font-family: &quot;Helvetica Neue&quot;, sans-serif; font-size: 12px; font-weight: 200;" fill="rgb(50, 49, 63)" stroke="none" stroke-width="1px">0.016</text></g><line x1="70" y1="0" x2="70" y2="378" fill="rgb(0, 0, 0)" stroke="rgb(204, 204, 204)" stroke-width="1px"></line></g></g><g transform="translate(70, 0)" clip-path="url(#clip_0)"><clipPath id="clip_0"><rect width="1443" height="378"></rect></clipPath><g><g><g><line x1="0" y1="0" x2="0" y2="378" fill="rgb(0, 0, 0)" stroke="rgb(60, 60, 60)" stroke-width="1px" opacity="0.25"></line><line x1="120.25" y1="0" x2="120.25" y2="378" fill="rgb(0, 0, 0)" stroke="rgb(60, 60, 60)" stroke-width="1px" opacity="0.25"></line><line x1="240.5" y1="0" x2="240.5" y2="378" fill="rgb(0, 0, 0)" stroke="rgb(60, 60, 60)" stroke-width="1px" opacity="0.25"></line><line x1="360.75" y1="0" x2="360.75" y2="378" fill="rgb(0, 0, 0)" stroke="rgb(60, 60, 60)" stroke-width="1px" opacity="0.25"></line><line x1="481" y1="0" x2="481" y2="378" fill="rgb(0, 0, 0)" stroke="rgb(60, 60, 60)" stroke-width="1px" opacity="0.25"></line><line x1="601.25" y1="0" x2="601.25" y2="378" fill="rgb(0, 0, 0)" stroke="rgb(60, 60, 60)" stroke-width="1px" opacity="0.25"></line><line x1="721.5" y1="0" x2="721.5" y2="378" fill="rgb(0, 0, 0)" stroke="rgb(60, 60, 60)" stroke-width="1px" opacity="0.25"></line><line x1="841.75" y1="0" x2="841.75" y2="378" fill="rgb(0, 0, 0)" stroke="rgb(60, 60, 60)" stroke-width="1px" opacity="0.25"></line><line x1="962" y1="0" x2="962" y2="378" fill="rgb(0, 0, 0)" stroke="rgb(60, 60, 60)" stroke-width="1px" opacity="0.25"></line><line x1="1082.25" y1="0" x2="1082.25" y2="378" fill="rgb(0, 0, 0)" stroke="rgb(60, 60, 60)" stroke-width="1px" opacity="0.25"></line><line x1="1202.5" y1="0" x2="1202.5" y2="378" fill="rgb(0, 0, 0)" stroke="rgb(60, 60, 60)" stroke-width="1px" opacity="0.25"></line><line x1="1322.75" y1="0" x2="1322.75" y2="378" fill="rgb(0, 0, 0)" stroke="rgb(60, 60, 60)" stroke-width="1px" opacity="0.25"></line><line x1="1443" y1="0" x2="1443" y2="378" fill="rgb(0, 0, 0)" stroke="rgb(60, 60, 60)" stroke-width="1px" opacity="0.25"></line></g><g><line x1="0" y1="378" x2="1443" y2="378" fill="rgb(0, 0, 0)" stroke="rgb(60, 60, 60)" stroke-width="1px" opacity="0.25"></line><line x1="0" y1="335.99999999999994" x2="1443" y2="335.99999999999994" fill="rgb(0, 0, 0)" stroke="rgb(60, 60, 60)" stroke-width="1px" opacity="0.25"></line><line x1="0" y1="293.99999999999994" x2="1443" y2="293.99999999999994" fill="rgb(0, 0, 0)" stroke="rgb(60, 60, 60)" stroke-width="1px" opacity="0.25"></line><line x1="0" y1="252.00000000000006" x2="1443" y2="252.00000000000006" fill="rgb(0, 0, 0)" stroke="rgb(60, 60, 60)" stroke-width="1px" opacity="0.25"></line><line x1="0" y1="210" x2="1443" y2="210" fill="rgb(0, 0, 0)" stroke="rgb(60, 60, 60)" stroke-width="1px" opacity="0.25"></line><line x1="0" y1="168" x2="1443" y2="168" fill="rgb(0, 0, 0)" stroke="rgb(60, 60, 60)" stroke-width="1px" opacity="0.25"></line><line x1="0" y1="125.99999999999997" x2="1443" y2="125.99999999999997" fill="rgb(0, 0, 0)" stroke="rgb(60, 60, 60)" stroke-width="1px" opacity="0.25"></line><line x1="0" y1="84.00000000000006" x2="1443" y2="84.00000000000006" fill="rgb(0, 0, 0)" stroke="rgb(60, 60, 60)" stroke-width="1px" opacity="0.25"></line><line x1="0" y1="42" x2="1443" y2="42" fill="rgb(0, 0, 0)" stroke="rgb(60, 60, 60)" stroke-width="1px" opacity="0.25"></line><line x1="0" y1="0" x2="1443" y2="0" fill="rgb(0, 0, 0)" stroke="rgb(60, 60, 60)" stroke-width="1px" opacity="0.25"></line></g></g></g><g><g><line x1="0" y1="1344" x2="1443" y2="1344" fill="rgb(0, 0, 0)" stroke="rgb(153, 153, 153)" stroke-width="1.5px"></line></g></g><g><g><line x1="120.25" y1="0" x2="120.25" y2="378" fill="rgb(0, 0, 0)" stroke="rgb(153, 153, 153)" stroke-width="1.5px"></line></g></g><g><g><g><g><g><path style="fill: none;" stroke="rgb(255, 112, 67)" stroke-width="2px" d="M168.35,-7.02767809321449L170.755,8.362567194425026L173.16,17.860663695878316L175.565,33.64476138493228L177.97,47.73376143173766L180.375,59.57670725293792L182.78000000000003,71.2439965387303L185.185,81.2810138576873L187.59,87.95879713258341L189.99499999999998,92.25786213286943L192.4,58.69659455618154L194.805,41.49919842704577L197.20999999999998,51.78473677293363L199.615,75.12434342054371L202.02,98.91459824539334L204.42499999999998,91.51444992477519L206.83,111.2851330493832L209.23499999999999,85.69834821587585L211.64000000000001,99.61985298615349L214.04500000000002,105.97902069120289L216.45,117.40596888760518L218.85500000000002,117.11610266134971L221.26,121.55568972099354L223.665,117.87483746267282L226.07000000000002,119.63564676337023L228.475,131.39245652208078L230.88,124.87272744779835L233.28499999999997,131.33361364262925L235.69,84.83363771887156L238.095,97.9171711234406L240.5,117.54789290605515L242.905,106.37726517780453L245.31000000000003,124.5316302673171L247.715,135.99392816402633L250.12,128.06159711466609L252.52499999999998,116.19055374017728L254.93,130.41278165311783L257.33500000000004,127.31393669683399L259.74,126.84029019259594L262.145,91.16557474364589L264.54999999999995,98.83589566606167L266.955,116.98298893486225L269.36,136.23809193441156L271.765,137.85761946957635L274.17,145.82926673007813L276.57500000000005,148.44009046741013L278.98,124.30516619078927L281.385,130.1926476037062L283.78999999999996,129.75885116312236L286.195,135.9770781353313L288.6,134.23246342868805L291.005,139.2171243723107L293.41,137.32733318185032L295.815,126.09892460689088L298.21999999999997,136.45512365689947L300.625,142.8625432812637L303.03,139.5145219423452L305.435,92.28375455487253L307.84000000000003,114.2283938333303L310.245,94.52916733055775L312.65000000000003,115.36044339912809L315.055,139.45064798937847L317.46,143.57620073525072L319.865,155.85714315872158L322.27,147.7613297194289L324.675,163.18121663868698L327.08,135.95658587300952L329.485,152.68862106135L331.89,152.4639536364706L334.295,164.49947095059346L336.7,88.10904414739014L339.10499999999996,115.50672952703121L341.51,136.8289638779847L343.915,148.06791519059468L346.32,152.3995464499815L348.725,153.88983410930777L351.13,163.56619827947696L353.53499999999997,169.49386953712525L355.94,121.80832192540782L358.34499999999997,134.3007065727749L360.75,155.296415059235L363.155,158.93246807364605L365.56000000000006,173.00954487149696L367.96500000000003,174.93569846287238L370.37,164.82407874664588L372.77500000000003,170.00905420065487L375.18,163.0907816391024L377.585,178.07623948459826L379.98999999999995,181.46798266056183L382.39500000000004,168.89822166611555L384.8,177.1529444900143L387.205,179.50950714629823L389.61,165.76103787828634L392.015,171.35723315005987L394.41999999999996,183.7847193975775L396.82500000000005,188.8841082155423L399.23,169.92281443475L401.635,116.34330321906992L404.04,122.55643359159808L406.445,154.71399287781335L408.84999999999997,172.5536491060329L411.25499999999994,179.6327771058127L413.66,181.85209708872105L416.065,172.81190421261002L418.46999999999997,187.99301434801586L420.875,188.56673041133018L423.28000000000003,187.32164838998273L425.685,193.15255138330903L428.09000000000003,191.5909807029559L430.495,192.27451722283328L432.9,145.40530059611288L435.30500000000006,167.9272027604311L437.71000000000004,188.46975227549848L440.115,185.19931838724125L442.52,197.97044558413688L444.925,195.5538900440209L447.33,178.71527423532436L449.73499999999996,148.81594488663444L452.14000000000004,171.27591804053168L454.545,180.4419317924128L456.95,132.28239301938697L459.355,145.99060505687513L461.76,155.66305789982863L464.16499999999996,169.54238825819255L466.56999999999994,157.58998292554247L468.975,173.22634645622264L471.38,163.14301612568673L473.78499999999997,166.7021747743653L476.19,152.5248904773932L478.59499999999997,178.69504787619968L481,182.8598392849925L483.40500000000003,183.83330163036348L485.81,170.8332063119086L488.215,182.48061734202355L490.62000000000006,198.3768007979563L493.02500000000003,171.20109548722323L495.43,169.75817243191386L497.835,157.34184757431015L500.24,176.7370220515708L502.645,192.8187482412803L505.04999999999995,201.77988227940486L507.45500000000004,201.74791504583888L509.86,181.80618468309726L512.265,196.19717150560186L514.6700000000001,206.24909201640583L517.075,209.2925048791091L519.48,204.0880178524685L521.885,201.84580097875795L524.29,207.25854233671296L526.6949999999999,208.2707179294172L529.0999999999999,213.7158655706729L531.505,196.58363253973047L533.91,177.36867432059125L536.3149999999999,138.12567639506622L538.72,169.60644164178828L541.125,191.37008133229045L543.53,198.3054614585424L545.9350000000001,211.7609818650357L548.34,208.92077454764086L550.745,198.9675252725984L553.1500000000001,204.79658011736302L555.5550000000001,200.0146283515802L557.96,214.01101770451723L560.365,196.60945617229382L562.77,208.07845204514643L565.175,193.08208540345663L567.5799999999999,209.44825757304085L569.985,190.83399274801755L572.39,201.2602830818626L574.795,208.5540587598879L577.2,209.9812308844804L579.605,204.0283308325338L582.01,194.51043292868889L584.4150000000001,193.83386523120853L586.82,190.86081812735347L589.225,198.36336520883992L591.63,180.79712160571538L594.035,198.00572624292454L596.4399999999999,212.0293736248403L598.845,222.24947997267196L601.25,215.5442276855418L603.655,214.4035479939049L606.06,207.99008924460796L608.465,188.44400575576054L610.87,207.32661901007776L613.275,207.3387446051281L615.6800000000001,152.38373062881476L618.085,190.21674870176702L620.49,208.40306338503115L622.895,196.95706202288957L625.3000000000001,210.17851829350292L627.705,193.59110662830057L630.11,214.0687098234426L632.515,219.2790500360447L634.92,215.43367437349067L637.3249999999999,180.1687207688469L639.73,193.3300121706472L642.135,182.14231107722193L644.54,199.6082937126784L646.9449999999999,207.80341011318137L649.35,217.5070652248416L651.755,223.64937993776525L654.16,234.3811061912282L656.565,231.9124989827575L658.97,231.85595421314844L661.375,223.4959856529273L663.78,224.4036318337463L666.1850000000001,227.32171971056115L668.59,232.09689274104394L670.995,228.07440567417132L673.4,212.53411098958964L675.805,225.50451362515628L678.2099999999999,170.3591946982452L680.615,197.64018659729408L683.02,217.18740505539552L685.425,225.50520454980838L687.83,231.65232760392374L690.235,224.01799582649906L692.64,236.48645603185676L695.0450000000001,200.68545841888061L697.45,195.79607945511023L699.855,164.71393357413584L702.26,151.5489588183021L704.665,181.42917851220702L707.0699999999999,210.32540390259703L709.4749999999999,221.82346943239378L711.88,215.3747068597079L714.285,215.05673428494933L716.6899999999999,195.24574825834742L719.095,215.07013151449866L721.5,228.00999149920287L723.9050000000001,210.15557039524163L726.31,229.2197382732931L728.715,234.977002911848L731.1200000000001,241.64669104402196L733.525,238.83563938131886L735.9300000000001,239.25614731544832L738.335,227.31779422184562L740.74,217.64747573030434L743.145,224.7608631199149L745.5500000000001,211.81968158158946L747.9549999999999,203.06334657474332L750.36,218.614823991084L752.7649999999999,235.35438301207063L755.17,239.28695552373787L757.575,223.84022533193155L759.9799999999999,236.5590681153233L762.385,236.96785993085481L764.7900000000001,241.4209040564667L767.1949999999999,243.6573275424462L769.6,244.1637361107719L772.005,185.71145925870263L774.41,186.57917714089578L776.8149999999999,165.523233425441L779.22,194.69451878775513L781.625,185.14572793429707L784.03,206.0595865856744L786.4350000000001,227.2178597695313L788.8399999999999,241.70481646339192L791.245,246.49610638785424L793.6500000000001,250.92120162348783L796.055,245.05119715750726L798.46,254.84030938518356L800.8650000000001,252.95575536711402L803.27,246.47952344073877L805.6750000000001,237.58918459447645L808.08,242.2061957790401L810.485,252.02987459146664L812.89,227.34226335789958L815.295,235.13112971607563L817.6999999999999,216.23839572324596L820.105,212.08033324035551L822.5099999999999,207.8429763123545L824.915,218.92935789854246L827.32,201.30247904795948L829.7249999999999,217.80291646682343L832.13,216.11142704464856L834.5350000000001,209.1637373899095L836.9399999999999,220.88933542577462L839.345,210.42142523055088L841.75,216.31318735316276L844.155,235.0975505902462L846.5600000000001,248.9377471205051L848.965,222.17114621379707L851.37,240.08860927807532L853.775,246.67212342016245L856.1800000000001,232.39025587315754L858.5849999999999,229.99037701174856L860.99,243.88230511120113L863.3950000000001,253.74731799704523L865.8,255.58701215233032L868.205,256.7890243175365L870.6100000000001,225.0621320630751L873.015,238.58474632654426L875.4200000000001,246.82263974281454L877.8249999999999,247.98152542073908L880.23,256.22205830788243L882.635,258.89589257941026L885.04,256.65529122296203L887.4449999999999,247.05917695965314L889.85,210.11893764618605L892.2549999999999,227.26319749047497L894.66,241.03325894409508L897.065,246.0383162315731L899.4699999999999,259.1594163785008L901.875,225.78814183530966L904.2800000000001,237.9564092806443L906.685,219.56308590480475L909.09,237.71160914366706L911.4950000000001,217.8580614320354L913.9,227.3100315923642L916.3050000000001,211.24260699720088L918.71,228.22441334707085L921.115,223.6589246462735L923.52,178.82626355117276L925.9250000000001,197.74011115089485L928.3299999999999,218.2773504010166L930.735,237.94302791066917L933.1399999999999,212.9727239352939L935.545,238.6597279633569L937.95,247.4310803726606L940.3549999999999,238.21619480343404L942.76,233.030917021583L945.1650000000001,236.97062518176452L947.5699999999999,247.13543595061907L949.975,262.267041249193L952.38,224.82381773180796L954.785,240.9665568362894L957.1899999999999,246.75269307441852L959.595,257.0348924264154L962,229.18235316663032L964.405,229.43364692204636L966.8100000000001,251.19407372756856L969.2149999999999,221.79127849986577L971.62,240.14210154921065L974.0250000000001,259.7196827310935L976.43,273.39018443695386L978.835,266.83415785713004L981.2400000000001,267.7334086971463L983.645,269.5014064596284L986.0500000000001,258.2786087206714L988.455,272.5370869405099L990.86,209.29242473644192L993.265,242.73766736866352L995.67,245.62617168832622L998.0749999999999,256.49516428714276L1000.48,262.7347088527995L1002.8849999999999,246.09948535396558L1005.29,252.7716237642402L1007.695,260.1424425803443L1010.0999999999999,215.01833299176815L1012.505,236.80732289181304L1014.9100000000001,256.61337885395375L1017.3149999999999,270.42253004989425L1019.72,280.91000708032493L1022.125,274.3460575228264L1024.53,260.9437591484386L1026.935,249.78246141977294L1029.3400000000001,259.4444621533584L1031.745,258.5758725124855L1034.15,266.12647807110903L1036.555,240.51699728673432L1038.96,248.42693750206072L1041.365,256.92805683698316L1043.77,248.61503691724576L1046.175,252.0377875402666L1048.58,259.71697346181264L1050.9850000000001,259.3199792016184L1053.3899999999999,268.3031323020836L1055.795,279.08101880938887L1058.1999999999998,277.1608139299815L1060.605,269.61314242026003L1063.01,280.3731800731468L1065.415,279.69527770378886L1067.82,227.57146057664582L1070.2250000000001,257.0493117760374L1072.6299999999999,274.3459935421201L1075.035,268.30733221974674L1077.44,263.07601701144415L1079.845,258.3242591436151L1082.25,255.2376662382748L1084.655,256.8498460226814L1087.06,270.6716182454561L1089.465,273.32037056828347L1091.8700000000001,278.73765725698956L1094.2749999999999,256.5211162853652L1096.68,264.29834827711665L1099.085,267.27258015233565L1101.49,273.3302895102399L1103.895,239.53468385180813L1106.3000000000002,257.2866141727029L1108.705,268.53958854260804L1111.1100000000001,281.30421522368647L1113.5149999999999,261.23466759389436L1115.92,266.29400632063033L1118.325,249.34134541320495L1120.73,264.9054013154964L1123.135,252.02842527997853L1125.54,274.82294404728634L1127.945,273.6676965965236L1130.35,283.5997391589524L1132.755,284.45864143657934L1135.1599999999999,269.62522947006374L1137.565,258.16029756792153L1139.97,276.09101632552006L1142.375,223.08074632475765L1144.78,242.51488843673465L1147.185,257.3722092218042L1149.59,271.40773442428366L1151.9950000000001,267.6222447934214L1154.4,184.62256169214635L1156.805,234.3984829896378L1159.21,262.86470050297294L1161.615,259.45198309828123L1164.02,263.4514912272051L1166.425,268.4586072507236L1168.8300000000002,261.2735895003517L1171.235,275.73844875607733L1173.64,269.3119096858134L1176.0449999999998,282.47616259472545L1178.45,284.6415640963135L1180.855,264.67274270373696L1183.26,269.62685500334567L1185.665,264.1294293448381L1188.07,239.8946115043791L1190.475,238.7683510939498L1192.8799999999999,263.9211858368051L1195.285,263.2019127402384L1197.69,270.7723886724519L1200.095,253.1707678768758L1202.5,260.9320188244418L1204.905,271.8921304512164L1207.31,273.26241864968193L1209.7150000000001,265.3230530036024L1212.12,275.4306017525513L1214.525,285.33887510106086L1216.93,290.02641505363647L1219.335,292.9574747822466L1221.74,292.3052472795118L1224.145,289.61667028218915L1226.55,273.58024461955074L1228.955,272.6659483307019L1231.3600000000001,248.4048368450054L1233.7649999999999,255.7730292389422L1236.17,235.4201904958265L1238.5749999999998,267.25096724187006L1240.98,261.6100069150606L1243.385,277.41608189733495L1245.79,260.1057641696434L1248.195,265.8744200820625L1250.6000000000001,288.25821377962234L1253.0049999999999,270.94955214339143L1255.41,268.0710669426779L1257.815,277.26744637898565L1260.22,290.29987151629905L1262.625,295.3215009642076L1265.03,286.18027646973314L1267.435,293.32028833409896L1269.84,289.46331723559354L1272.2450000000001,287.12979584949295L1274.6499999999999,276.8194114924494L1277.055,267.011644384922L1279.46,262.5153357396492L1281.865,279.5109773403386L1284.27,289.4573969439256L1286.6750000000002,289.53263219568663L1289.08,284.0713055275294L1291.4850000000001,285.9660230840689L1293.8899999999999,256.56528260501904L1296.295,265.6506148111383L1298.7,282.65188448021183L1301.105,277.12200002902375L1303.51,284.626840847931L1305.915,293.92124352347946L1308.32,304.20498760635917L1310.725,288.0339037066416L1313.13,273.71111257587165L1315.5349999999999,289.3597838861602L1317.94,298.36049104826793L1320.345,301.11247981248584" fill="none"></path></g><g><path style="fill: none;" stroke="rgb(187, 187, 187)" stroke-width="2px" d="M161.135,-5.649767698656831L163.54,19.29761930666433L165.945,33.94410027331406L168.35,50.27203752257344L170.755,57.053128981437226L173.16,74.25514172403552L175.565,86.16442378993213L177.97,94.88431526338252L180.375,92.18790595193798L182.78000000000003,106.62350749518424L185.185,104.66163283239666L187.59,116.78639734485387L189.99499999999998,125.19225604815696L192.4,115.71329166017921L194.805,126.9667964922456L197.20999999999998,133.16514780001916L199.615,136.23437089103723L202.02,136.63219672158743L204.42499999999998,140.3972371472758L206.83,141.72593717526183L209.23499999999999,151.74610279198316L211.64000000000001,150.0927437995542L214.04500000000002,158.55235913064422L216.45,161.98130115942806L218.85500000000002,170.88980157253684L221.26,170.44567552242282L223.665,176.7962050629746L226.07000000000002,179.23143916114202L228.475,182.89769517673489L230.88,186.05033483095903L233.28499999999997,180.56920106391482L235.69,173.88885856369313L238.095,181.85248289531447L240.5,185.5539785625279L242.905,185.4893388391577L245.31000000000003,185.63984296566525L247.715,185.3108267655745L250.12,191.9523168963697L252.52499999999998,191.62248438373217L254.93,190.32997537717213L257.33500000000004,197.27371999660215L259.74,200.04357299231964L262.145,205.23517797603319L264.54999999999995,199.9253716243153L266.955,201.10891358690537L269.36,206.97140134952716L271.765,205.2207493995562L274.17,205.9106871971451L276.57500000000005,205.96438003116612L278.98,210.89708547910314L281.385,212.6890314049737L283.78999999999996,215.1705437318813L286.195,216.03541731931747L288.6,210.95218137561056L291.005,214.66553712879883L293.41,215.04807901975664L295.815,215.83977281211116L298.21999999999997,211.26087251399937L300.625,216.40823906120647L303.03,209.50632894907582L305.435,212.4781106166493L307.84000000000003,220.7484776289733L310.245,218.86507011124323L312.65000000000003,203.6073032180597L315.055,212.4394115662652L317.46,218.9620544586228L319.865,223.50546310386937L322.27,224.56762675071886L324.675,225.95159381404602L327.08,225.1875304327909L329.485,230.76868949809705L331.89,224.75083836602587L334.295,229.0414997022595L336.7,232.96747950799727L339.10499999999996,224.056600416228L341.51,229.89120545656976L343.915,228.62653689784696L346.32,220.98030133964355L348.725,225.53013980341996L351.13,224.7249048111024L353.53499999999997,229.61661563856504L355.94,224.90007765616835L358.34499999999997,228.5927820415846L360.75,231.84800206491653L363.155,219.54182699244814L365.56000000000006,227.84167308164595L367.96500000000003,235.5270310911713L370.37,236.45227827269912L372.77500000000003,234.81482800030153L375.18,236.5984529386963L377.585,236.01000349110402L379.98999999999995,234.6514451884391L382.39500000000004,240.06713539261594L384.8,242.04022482573382L387.205,240.95556444847222L389.61,229.75962324692983L392.015,229.8573638782154L394.41999999999996,232.23330720575154L396.82500000000005,231.4939371365994L399.23,231.2166969906503L401.635,215.11408403701878L404.04,223.66556037180007L406.445,232.56771698422665L408.84999999999997,238.91415536896855L411.25499999999994,235.58433834610267L413.66,238.95920336185628L416.065,235.6433167215511L418.46999999999997,238.45229242779766L420.875,242.2158399852391L423.28000000000003,243.66884536935544L425.685,245.5814976894477L428.09000000000003,238.3092013599646L430.495,241.4342605592114L432.9,245.98839820154325L435.30500000000006,249.11760632233498L437.71000000000004,250.33201313040666L440.115,253.99832875741728L442.52,256.4342195821595L444.925,254.71209267573306L447.33,242.53313836930246L449.73499999999996,245.98679729388977L452.14000000000004,246.7288762574602L454.545,244.2134834435707L456.95,249.89462427539382L459.355,249.84496234800073L461.76,255.24346449938818L464.16499999999996,250.9969138203109L466.56999999999994,252.87645665991562L468.975,252.8140996348158L471.38,248.5931054384288L473.78499999999997,243.29031450931876L476.19,241.33586680522362L478.59499999999997,249.5494902827191L481,251.92197962390475L483.40500000000003,259.76846527926386L485.81,255.9249155394569L488.215,250.67382301523287L490.62000000000006,242.41042114278082L493.02500000000003,245.94489749062305L495.43,245.94370562904018L497.835,238.29067501469203L500.24,246.60320114519448L502.645,251.72771511927994L505.04999999999995,251.27670445713844L507.45500000000004,260.4737504999246L509.86,263.70174713614017L512.265,262.68676068593527L514.6700000000001,263.54657329445763L517.075,264.36471452311093L519.48,263.04404870268945L521.885,262.2257390713527L524.29,258.3385849413773L526.6949999999999,259.95389616593724L529.0999999999999,265.5313012725413L531.505,265.7527249649942L533.91,257.68680382941835L536.3149999999999,247.6135595153253L538.72,251.92800462904464L541.125,257.7768744031363L543.53,261.9602353930338L545.9350000000001,264.33328498362687L548.34,266.67395189380164L550.745,264.70443261251165L553.1500000000001,259.52010523429703L555.5550000000001,258.63884471148964L557.96,257.1562322872324L560.365,258.9844131170179L562.77,265.8461398064175L565.175,265.79133050317046L567.5799999999999,260.71692015334656L569.985,262.4122021889966L572.39,261.80232107021095L574.795,261.04880425559094L577.2,256.7092345310844L579.605,263.4704120608328L582.01,267.4858751447296L584.4150000000001,256.3953133911667L586.82,261.393623297857L589.225,253.62528795328546L591.63,260.24101764158485L594.035,261.4101890098815L596.4399999999999,271.3490319235185L598.845,264.5097561826146L601.25,272.57103233038407L603.655,271.079590764636L606.06,272.59737283408305L608.465,276.6157567287664L610.87,266.4648757210482L613.275,268.375917519993L615.6800000000001,271.8390279447237L618.085,271.63245231122966L620.49,277.0806575787735L622.895,273.0504942877692L625.3000000000001,270.4346593942405L627.705,267.8620480493404L630.11,270.90880033944234L632.515,263.0402950857531L634.92,266.5967929371865L637.3249999999999,269.5472365384502L639.73,268.00910963804733L642.135,270.43408632392413L644.54,272.572561777322L646.9449999999999,269.00362928908385L649.35,275.17254010558923L651.755,277.36418289971834L654.16,277.3089352788478L656.565,275.91184318911723L658.97,276.70445595295246L661.375,276.2788952595652L663.78,278.855368066231L666.1850000000001,277.5920982530115L668.59,276.31821793141364L670.995,275.85279511107444L673.4,271.23928834613235L675.805,266.258840177155L678.2099999999999,267.79852454286606L680.615,268.30771035207397L683.02,264.14913643749395L685.425,273.12354698986906L687.83,278.11850858456546L690.235,278.33765577510985L692.64,278.09857903263566L695.0450000000001,284.1280358692502L697.45,286.6058828985987L699.855,286.68161506392346L702.26,278.5791605170833L704.665,269.7521848116079L707.0699999999999,272.4231794019794L709.4749999999999,282.4430666053447L711.88,283.1776856353373L714.285,275.8903512698705L716.6899999999999,280.62814956559515L719.095,281.7736831405985L721.5,286.36579893226786L723.9050000000001,290.1143842827997L726.31,282.66259792397756L728.715,285.8979149398227L731.1200000000001,289.49916901213055L733.525,288.14944182647537L735.9300000000001,287.86084366329476L738.335,286.4607708364007L740.74,279.59283341820696L743.145,282.23752746496007L745.5500000000001,278.5843311876858L747.9549999999999,279.91034065072563L750.36,282.5352084063578L752.7649999999999,284.7275914563589L755.17,286.8152873762758L757.575,287.20633021881054L759.9799999999999,284.208509611427L762.385,281.4633774443502L764.7900000000001,275.73172743821345L767.1949999999999,277.0138589245331L769.6,274.59737982167314L772.005,280.07241512425844L774.41,282.29471380167064L776.8149999999999,284.8327893057635L779.22,289.2020886921389L781.625,288.47634746930026L784.03,287.3933683055701L786.4350000000001,286.08315389264004L788.8399999999999,288.91768554990506L791.245,276.77979300108564L793.6500000000001,284.26808980516796L796.055,285.75383325464855L798.46,286.21923277406296L800.8650000000001,281.9866035320067L803.27,276.68609413729325L805.6750000000001,281.07959126964926L808.08,283.0463129969581L810.485,288.8054311449613L812.89,293.0395830735734L815.295,284.9165812531215L817.6999999999999,292.2608814835013L820.105,290.7642682671227L822.5099999999999,289.40295320032106L824.915,286.01423863934303L827.32,282.58248824099803L829.7249999999999,284.1892532957798L832.13,283.8202231558088L834.5350000000001,286.17583126019974L836.9399999999999,286.6716392409297L839.345,284.69798142740086L841.75,289.3383109034834L844.155,292.2305926717364L846.5600000000001,289.38384125453484L848.965,293.28777632607364L851.37,289.674654349645L853.775,289.22586256561283L856.1800000000001,291.9126276987649L858.5849999999999,291.1363852869187L860.99,293.1905573279091L863.3950000000001,290.3627727788943L865.8,282.8256813265239L868.205,289.1800835238311L870.6100000000001,292.3116762105474L873.015,294.20975150250484L875.4200000000001,299.7334496234841L877.8249999999999,302.86639139979997L880.23,302.0135129805202L882.635,302.55634110664084L885.04,301.1975347250387L887.4449999999999,299.80615710316204L889.85,305.1904523438102L892.2549999999999,299.46794990693843L894.66,304.0817683934887L897.065,290.92780963180763L899.4699999999999,297.32644070147467L901.875,301.316824406141L904.2800000000001,293.0950635729753L906.685,288.45227573266754L909.09,294.93949133128604L911.4950000000001,292.71530678254777L913.9,298.8250481270695L916.3050000000001,294.3691282739009L918.71,300.7229441922764L921.115,297.20191336404446L923.52,294.11469186980224L925.9250000000001,295.18817068123036L928.3299999999999,301.5040124474956L930.735,308.01899502390575L933.1399999999999,308.44413480588173L935.545,299.94600389855134L937.95,299.8711889413418L940.3549999999999,303.916503311838L942.76,301.1398219952854L945.1650000000001,306.11262920438475L947.5699999999999,302.7074928220464L949.975,295.2598626456471L952.38,298.1934795762189L954.785,300.2596584907226L957.1899999999999,296.98280301994396L959.595,301.52467205110975L962,300.7893817423808L964.405,307.5663404702561L966.8100000000001,303.29583457943306L969.2149999999999,303.6353727450162L971.62,302.83504646242807L974.0250000000001,303.27703885567877L976.43,306.52668802936495L978.835,303.6910813748814L981.2400000000001,305.0938021123396L983.645,300.7246802794925L986.0500000000001,306.4659236161704L988.455,301.41123651795357L990.86,299.26450094779L993.265,302.5050387215594L995.67,299.7783703823078L998.0749999999999,300.70180921668936L1000.48,294.21116229841186L1002.8849999999999,296.3720800456349L1005.29,294.7736420379247L1007.695,303.80137322820224L1010.0999999999999,308.26230957792404L1012.505,307.49288547448043L1014.9100000000001,307.1881000066502L1017.3149999999999,308.6373484411658L1019.72,311.5963249134315L1022.125,313.80310835404936L1024.53,309.492630648397L1026.935,306.7097023414269L1029.3400000000001,303.34771286765897L1031.745,308.6827401955138L1034.15,303.352718129111L1036.555,303.51235224864047L1038.96,305.24748098886704L1041.365,301.5806108596128L1043.77,304.8633933950782L1046.175,305.5786116414856L1048.58,312.19350666365585L1050.9850000000001,307.3114713225458L1053.3899999999999,313.41681520901284L1055.795,315.152156989349L1058.1999999999998,320.1491017941075L1060.605,304.23283585330466L1063.01,305.18078192723175L1065.415,305.30848265083057L1067.82,308.8053666138138L1070.2250000000001,315.6098797430685L1072.6299999999999,315.72771049202026L1075.035,315.4585417667659L1077.44,318.1975366568346L1079.845,314.71908113335246L1082.25,318.6657845197598L1084.655,311.75772642007337L1087.06,315.2731240446023L1089.465,307.5777532014042L1091.8700000000001,313.8141878219121L1094.2749999999999,314.8060378057762L1096.68,311.2398480309846L1099.085,303.24541279875046L1101.49,306.85975232841264L1103.895,315.43479439688736L1106.3000000000002,318.36785103722224L1108.705,315.59901202824005L1111.1100000000001,316.0635604328292L1113.5149999999999,316.83113994994034L1115.92,315.0539027976887L1118.325,319.73620050715783L1120.73,318.58642852048496L1123.135,313.91913993203883L1125.54,308.4942699613824L1127.945,315.2402861560973L1130.35,313.737399592733L1132.755,318.79453025742515L1135.1599999999999,321.8549065499553L1137.565,322.54517193490557L1139.97,312.71043170603684L1142.375,308.0285219258819L1144.78,311.4405631725046L1147.185,317.1855840864213L1149.59,315.6076881517428L1151.9950000000001,317.70817696031685L1154.4,316.6700093446776L1156.805,313.12877596012385L1159.21,317.8571425473191L1161.615,317.84448529455057L1164.02,315.1308147381126L1166.425,317.1261516136156L1168.8300000000002,317.36405274404444L1171.235,314.79786960562086L1173.64,322.227573956728L1176.0449999999998,324.695260063219L1178.45,324.74978142703054L1180.855,317.36706250741764L1183.26,317.71537971398044L1185.665,319.50761096418387L1188.07,314.3970604702262L1190.475,316.08305022504493L1192.8799999999999,313.3033773981723L1195.285,321.7733224203106L1197.69,320.214658473129L1200.095,320.22311488043965L1202.5,315.18725851328196L1204.905,306.8864599773348L1207.31,309.93590220863L1209.7150000000001,322.8464390698337L1212.12,321.4146889724293L1214.525,327.10145378577465L1216.93,326.395240011619L1219.335,327.03082337546743L1221.74,326.07542300563097L1224.145,311.91973114216944L1226.55,313.1936874401845L1228.955,317.47185784651504L1231.3600000000001,318.53694208904307L1233.7649999999999,317.7096602585566L1236.17,321.9752805749567L1238.5749999999998,316.6379120302195L1240.98,324.55563443613016L1243.385,321.5974382383344L1245.79,325.47600021497715L1248.195,329.8472846539994L1250.6000000000001,326.0051939840424L1253.0049999999999,323.29808208676025L1255.41,323.2977673371545L1257.815,320.99279651402895L1260.22,325.3636485657661L1262.625,323.2854722691517L1265.03,321.6971346946323L1267.435,323.3902520425179L1269.84,330.35569119972337L1272.2450000000001,327.084600594773L1274.6499999999999,320.1738606853093L1277.055,321.0090790726427L1279.46,325.4106248103191L1281.865,325.04710264698326L1284.27,319.03898074445533L1286.6750000000002,324.5840166224087L1289.08,320.730362284961L1291.4850000000001,319.8116845540896L1293.8899999999999,321.8686400802551L1296.295,314.63116798112503L1298.7,321.1465350348336L1301.105,325.01460571042185L1303.51,330.3439657387226L1305.915,332.32477528435527L1308.32,322.7474417601975L1310.725,325.52879440277525L1313.13,329.1106066315752L1315.5349999999999,332.3160954004158L1317.94,330.652367728092L1320.345,321.6002084714996" fill="none"></path></g></g></g></g><g opacity="0.2"><g><g><g><path stroke="rgb(255, 112, 67)" stroke-width="2px" d="M163.54,-12.47197812795639L165.945,15.801052987575531L168.35,36.3451647162438L170.755,31.447428703308162L173.16,32.10762092471123L175.565,57.32072094082832L177.97,68.86716136336327L180.375,77.34107547998428L182.78000000000003,88.74490061402327L185.185,96.3365244269371L187.59,97.97546589374542L189.99499999999998,98.70645725727081L192.4,8.354704320430756L194.805,15.70310765504837L197.20999999999998,67.21304306387901L199.615,110.13375172019005L202.02,134.5999794602394L204.42499999999998,80.4142276346684L206.83,140.94115743041039L209.23499999999999,47.3181712031365L211.64000000000001,120.5021100640297L214.04500000000002,115.51777222752571L216.45,134.54639115929604L218.85500000000002,116.68130332231522L221.26,128.21507030725482L223.665,112.35355907678604L226.07000000000002,122.27686071395877L228.475,149.02767115831378L230.88,115.09313383698463L233.28499999999997,141.0249429345131L235.69,15.08367383480072L238.095,117.54247123003012L240.5,146.99397557973862L242.905,89.62132358551025L245.31000000000003,151.76317790150642L247.715,153.18737500905993L250.12,116.16310054063797L252.52499999999998,98.38398867845535L254.93,151.7461235225201L257.33500000000004,122.66566926240921L259.74,126.12982043623924L262.145,37.65350157022476L264.54999999999995,110.34137704968452L266.955,144.2036288380623L269.36,165.12074643373492L271.765,140.2869107723236L274.17,157.78673762083054L276.57500000000005,152.35632607340813L278.98,88.10277977585798L281.385,139.0238697230816L283.78999999999996,129.10815650224686L286.195,145.30441859364512L288.6,131.61554136872292L291.005,146.69411578774452L293.41,134.49264639616015L295.815,109.25631174445152L298.21999999999997,151.9894222319126L300.625,152.47367271780968L303.03,134.49248993396762L305.435,21.437603473663387L307.84000000000003,147.14535275101662L310.245,64.98032757639885L312.65000000000003,146.60735750198364L315.055,175.58595487475395L317.46,149.76452985405922L319.865,174.27855679392815L322.27,135.61760956048968L324.675,186.3110470175743L327.08,95.11963972449308L329.485,177.78667384386063L331.89,152.12695249915126L334.295,182.55274692177773L336.7,-26.47659605741495L339.10499999999996,156.60325759649277L341.51,168.81231540441516L343.915,164.92634215950966L346.32,158.89699333906174L348.725,156.12526559829712L351.13,178.08074453473094L353.53499999999997,178.38537642359734L355.94,50.28000050783157L358.34499999999997,153.03928354382515L360.75,186.78997778892517L363.155,164.38654759526256L365.56000000000006,194.12516006827354L367.96500000000003,177.82492884993553L370.37,149.65664917230606L372.77500000000003,177.78651738166812L375.18,152.7133727967739L377.585,200.55442625284195L379.98999999999995,186.55559742450714L382.39500000000004,150.04358017444613L384.8,189.5350287258625L387.205,183.04435113072395L389.61,145.1383339762688L392.015,179.75152605772018L394.41999999999996,202.42594876885414L396.82500000000005,196.53319144248962L399.23,141.48087376356125L401.635,35.97403639554983L404.04,131.87612915039065L406.445,202.95033180713654L408.84999999999997,199.31313344836235L411.25499999999994,190.2514691054821L413.66,185.18107706308365L416.065,159.25161489844325L418.46999999999997,210.76467955112457L420.875,189.42730450630188L423.28000000000003,185.45402535796168L425.685,201.89890587329865L428.09000000000003,189.24862468242645L430.495,193.2998220026493L432.9,75.10147565603256L435.30500000000006,201.71005600690842L437.71000000000004,219.28357654809952L440.115,180.29366755485535L442.52,217.12713637948036L444.925,191.92905673384666L447.33,153.45735052227974L449.73499999999996,103.96695086359978L452.14000000000004,204.96587777137756L454.545,194.19095242023468L456.95,60.04308485984808L459.355,166.5529231131077L461.76,170.17173716425896L464.16499999999996,190.36138379573822L466.56999999999994,139.6613749265671L468.975,196.68089175224304L471.38,148.01802062988284L473.78499999999997,172.04091274738312L476.19,131.25896403193474L478.59499999999997,217.9502839744091L481,189.10702639818192L483.40500000000003,185.29349514842036L485.81,151.3330633342266L488.215,199.9517338871956L490.62000000000006,222.2210759818554L493.02500000000003,130.4375375211239L495.43,167.59378784894943L497.835,138.71736028790474L500.24,205.82978376746178L502.645,216.94133752584457L505.04999999999995,215.22158333659172L507.45500000000004,201.69996419548988L509.86,151.89358913898468L512.265,217.7836517393589L514.6700000000001,221.32697278261185L517.075,213.85762417316437L519.48,196.28128731250763L521.885,198.4824756681919L524.29,215.37765437364578L526.6949999999999,209.78898131847382L529.0999999999999,221.88358703255653L531.505,170.88528299331665L533.91,148.54623699188232L536.3149999999999,79.26117950677872L538.72,216.82758951187134L541.125,224.0155408680439L543.53,208.7085316479206L545.9350000000001,231.94426247477531L548.34,204.66046357154846L550.745,184.03765136003494L553.1500000000001,213.54016238451004L555.5550000000001,192.84170070290565L557.96,235.00560173392296L560.365,170.50711387395862L562.77,225.28194585442543L565.175,170.58753544092178L567.5799999999999,233.99751582741737L569.985,162.9125955104828L572.39,216.89971858263016L574.795,219.49472227692604L577.2,212.12198907136917L579.605,195.09898075461388L582.01,180.23358607292175L584.4150000000001,192.81901368498802L586.82,186.40124747157097L589.225,209.61718583106995L591.63,154.44775620102885L594.035,223.8186331987381L596.4399999999999,233.06484469771385L598.845,237.5796394944191L601.25,205.48634925484657L603.655,212.6925284564495L606.06,198.3699011206627L608.465,159.12488052248958L610.87,235.65053889155388L613.275,207.35693299770355L615.6800000000001,69.95120966434479L618.085,246.96627581119537L620.49,235.68253540992737L622.895,179.7880599796772L625.3000000000001,230.01070269942284L627.705,168.70998913049698L630.11,244.78511461615562L632.515,227.09456035494804L634.92,209.66561087965965L637.3249999999999,127.27129036188126L639.73,213.07194927334785L642.135,165.3607594370842L644.54,225.80726766586304L646.9449999999999,220.09608471393585L649.35,232.06254789233208L651.755,232.86285200715065L654.16,250.47869557142258L656.565,228.20958817005157L658.97,231.7711370587349L661.375,210.95603281259537L663.78,225.76510110497475L666.1850000000001,231.69885152578354L668.59,239.25965228676796L670.995,222.04067507386208L673.4,189.22366896271706L675.805,244.96011757850647L678.2099999999999,87.6412163078785L680.615,238.56167444586754L683.02,246.508232742548L685.425,237.9819037914276L687.83,240.87301218509674L690.235,212.56649816036224L692.64,255.18914633989334L695.0450000000001,146.98396199941635L697.45,188.46201100945473L699.855,118.0907147526741L702.26,131.80149668455127L704.665,226.24950805306435L707.0699999999999,253.66974198818207L709.4749999999999,239.07056772708893L711.88,205.70156300067902L714.285,214.5797754228115L716.6899999999999,165.52926921844485L719.095,244.8067063987255L721.5,247.41978147625923L723.9050000000001,183.37393873929977L726.31,257.8159900903702L728.715,243.6128998696804L731.1200000000001,251.65122324228287L733.525,234.61906188726425L735.9300000000001,239.88690921664238L738.335,209.41026458144188L740.74,203.1419979929924L743.145,235.43094420433044L745.5500000000001,192.40790927410126L747.9549999999999,189.9288440644741L750.36,241.94204011559486L752.7649999999999,260.4637215435505L755.17,245.18581429123878L757.575,200.67013004422188L759.9799999999999,255.637332290411L762.385,237.58104765415192L764.7900000000001,248.1004702448845L767.1949999999999,247.0119627714157L769.6,244.92334896326065L772.005,98.0330439805985L774.41,187.88075396418571L776.8149999999999,133.9393178522587L779.22,238.45144683122635L781.625,170.82254165410998L784.03,237.43037456274033L786.4350000000001,258.9552695453167L788.8399999999999,263.4352515041828L791.245,253.68304127454758L793.6500000000001,257.55884447693825L796.055,236.24619045853615L798.46,269.5239777266979L800.8650000000001,250.1289243400097L803.27,236.76517555117607L805.6750000000001,224.25367632508278L808.08,249.13171255588531L810.485,266.7653928101063L812.89,190.3108465075493L815.295,246.81442925333977L817.6999999999999,187.8992947340012L820.105,205.84323951601982L822.5099999999999,201.48694092035294L824.915,235.5589302778244L827.32,174.8621607720852L829.7249999999999,242.55357259511948L832.13,213.5741929113865L834.5350000000001,198.74220290780067L836.9399999999999,238.4777324795723L839.345,194.71955993771553L841.75,225.15083053708076L844.155,263.27409544587135L846.5600000000001,269.69804191589355L848.965,182.02124485373497L851.37,266.96480387449265L853.775,256.54739463329315L856.1800000000001,210.96745455265045L858.5849999999999,226.390558719635L860.99,264.7201972603798L863.3950000000001,268.5448373258114L865.8,258.3465533852577L868.205,258.59204256534576L870.6100000000001,177.47179368138316L873.015,258.86866772174835L875.4200000000001,259.1794798672199L877.8249999999999,249.71985393762589L880.23,268.5828576385975L882.635,262.90664398670197L885.04,253.29438918828964L887.4449999999999,232.66500556468964L889.85,154.70857867598534L892.2549999999999,252.97958725690842L894.66,261.68835112452507L897.065,253.5459021627903L899.4699999999999,278.8410665988922L901.875,175.7312300205231L904.2800000000001,256.20881044864655L906.685,191.97310084104538L909.09,264.93439400196075L911.4950000000001,188.07773986458778L913.9,241.48798683285713L916.3050000000001,187.14147010445595L918.71,253.69712287187576L921.115,216.81069159507751L923.52,111.57727190852165L925.9250000000001,226.11088255047798L928.3299999999999,249.08320927619934L930.735,267.441544175148L933.1399999999999,175.51726797223094L935.545,277.1902340054512L937.95,260.58810898661613L940.3549999999999,224.3938664495945L942.76,225.25300034880638L945.1650000000001,242.88018742203712L947.5699999999999,262.3826521039009L949.975,284.9644491970539L952.38,168.65898245573044L954.785,265.1806654930115L957.1899999999999,255.43189743161201L959.595,272.45819145441055L962,187.40354427695277L964.405,229.81058755517006L966.8100000000001,283.83471393585205L969.2149999999999,177.68708565831184L971.62,267.6683361232281L974.0250000000001,289.0860545039177L976.43,293.8959369957447L978.835,257.00011798739433L981.2400000000001,269.0822849571705L983.645,272.1534031033516L986.0500000000001,241.44441211223602L988.455,293.9248042702675L990.86,114.42543143033981L993.265,292.9055313169956L995.67,249.95892816781998L998.0749999999999,272.7986531853676L1000.48,272.0940257012844L1002.8849999999999,221.1466501057148L1005.29,262.779831379652L1007.695,271.1986708045006L1010.0999999999999,147.3321686089039L1012.505,269.4908077418804L1014.9100000000001,286.3224627971649L1017.3149999999999,291.1362568438053L1019.72,296.64122262597084L1022.125,264.50013318657875L1024.53,240.84031158685684L1026.935,233.0405148267746L1029.3400000000001,273.9374632537365L1031.745,257.27298805117607L1034.15,277.45238640904427L1036.555,202.10277611017227L1038.96,260.29184782505035L1041.365,269.6797358393669L1043.77,236.14550703763962L1046.175,257.1719134747982L1048.58,271.23575234413147L1050.9850000000001,258.724487811327L1053.3899999999999,281.7778619527817L1055.795,295.24784857034683L1058.1999999999998,274.28050661087036L1060.605,258.2916351556778L1063.01,296.5132365524769L1065.415,278.67842414975166L1067.82,149.38573488593102L1070.2250000000001,301.26608857512474L1072.6299999999999,300.2910161912441L1075.035,259.249340236187L1077.44,255.22904419898987L1079.845,251.19662234187126L1082.25,250.60777688026428L1084.655,259.26811569929123L1087.06,291.40427657961845L1089.465,277.29349905252457L1091.8700000000001,286.8635872900486L1094.2749999999999,223.19630482792854L1096.68,275.9641962647438L1099.085,271.7339279651642L1101.49,282.41685354709625L1103.895,188.84127536416057L1106.3000000000002,283.9145096540451L1108.705,285.4190500974655L1111.1100000000001,300.4511552453041L1113.5149999999999,231.13034614920616L1115.92,273.8830144107342L1118.325,223.9123540520668L1120.73,288.25148516893387L1123.135,232.71296122670174L1125.54,309.0147221982479L1127.945,271.93482542037964L1130.35,298.4978030025959L1132.755,285.7469948530197L1135.1599999999999,247.37511152029037L1137.565,240.96289971470833L1139.97,302.9870944619179L1142.375,143.56534132361415L1144.78,271.6661016047001L1147.185,279.65819039940834L1149.59,292.46102222800255L1151.9950000000001,261.9440103471279L1154.4,60.12303704023361L1156.805,309.06236493587494L1159.21,305.5640267729759L1161.615,254.33290699124336L1164.02,269.45075342059135L1166.425,275.9692812860012L1168.8300000000002,250.496062874794L1171.235,297.4357376396656L1173.64,259.67210108041763L1176.0449999999998,302.22254195809364L1178.45,287.88966634869576L1180.855,234.71951061487198L1183.26,277.0580234527588L1185.665,255.88329085707664L1188.07,203.5423847436905L1190.475,237.07896047830582L1192.8799999999999,301.65043795108795L1195.285,262.1230030953884L1197.69,282.12810257077217L1200.095,226.76833668351173L1202.5,272.5738952457905L1204.905,288.3322978913784L1207.31,275.31785094738007L1209.7150000000001,253.41400453448296L1212.12,290.59192487597466L1214.525,300.2012851238251L1216.93,297.0577249825001L1219.335,297.3540643751621L1221.74,291.3269060254097L1224.145,285.5838047862053L1226.55,249.52560612559319L1228.955,271.2945038974285L1231.3600000000001,212.0131696164608L1233.7649999999999,266.82531782984734L1236.17,204.8909323811531L1238.5749999999998,314.9971323609352L1240.98,253.14856642484665L1243.385,301.1251943707466L1245.79,234.14028757810593L1248.195,274.5274039506912L1250.6000000000001,321.83390432596207L1253.0049999999999,244.98655968904495L1255.41,263.7533391416073L1257.815,291.06201553344727L1260.22,309.84850922226906L1262.625,302.85394513607025L1265.03,272.4684397280216L1267.435,304.03030613064766L1269.84,283.6778605878353L1272.2450000000001,283.6295137703419L1274.6499999999999,261.3538349568844L1277.055,252.2999937236309L1279.46,255.77087277173996L1281.865,305.00443974137306L1284.27,304.3770263493061L1286.6750000000002,289.645485073328L1289.08,275.87931552529335L1291.4850000000001,288.80809941887856L1293.8899999999999,212.4641718864441L1296.295,279.27861312031746L1298.7,308.15378898382187L1301.105,268.8271733522415L1303.51,295.88410207629204L1305.915,307.8628475368023L1308.32,319.63060373067856L1310.725,263.7772778570652L1313.13,252.22692587971687L1315.5349999999999,312.832790851593L1317.94,311.8615517914295L1320.345,305.2404629588127" style="fill: none;" fill="none"></path></g><g><path stroke="rgb(187, 187, 187)" stroke-width="2px" d="M156.32500000000002,-16.903456807136536L158.73,13.55769807100296L161.135,34.595291554927826L163.54,56.71489933133131L165.945,55.91248297691345L168.35,74.76304793357849L170.755,67.22454303503036L173.16,100.05782121419907L175.565,104.02820581197739L177.97,107.96409049630165L180.375,88.1433034837246L182.78000000000003,128.2768728733063L185.185,101.71882385015488L187.59,134.9735329449177L189.99499999999998,137.8010394573212L192.4,101.49484822154045L194.805,143.84705150127414L197.20999999999998,142.4626740217209L199.615,140.8382053077221L202.02,137.22893545031548L204.42499999999998,146.0447976887226L206.83,143.7189871966839L209.23499999999999,166.77635112404823L211.64000000000001,147.61270532011986L214.04500000000002,171.24178209900856L216.45,167.12471419572833L218.85500000000002,184.25255218148232L221.26,169.7794864475727L223.665,186.3219993710518L226.07000000000002,182.88429030776024L228.475,188.39707919955256L230.88,190.77929431200027L233.28499999999997,172.34750041365626L235.69,163.8683448135853L238.095,193.79791939258575L240.5,191.106222063303L242.905,185.3923792541027L245.31000000000003,185.86559915542603L247.715,184.81730246543884L250.12,201.91455209255219L252.52499999999998,191.1277356147766L254.93,188.39121186733246L257.33500000000004,207.689336925745L259.74,204.19835248589516L262.145,213.02258545160294L264.54999999999995,191.96066209673882L266.955,202.88422653079033L269.36,215.7651329934597L271.765,202.59477147459984L274.17,206.94559389352798L276.57500000000005,206.04491928219795L278.98,218.2961436510086L281.385,215.37695029377937L283.78999999999996,218.89281222224236L286.195,217.33272770047188L288.6,203.32732746005058L291.005,220.23557075858116L293.41,215.62189185619354L295.815,217.02731350064278L298.21999999999997,204.3925220668316L300.625,224.12928888201714L303.03,199.15346378087997L305.435,216.93578311800957L307.84000000000003,233.15402814745903L310.245,216.03995883464813L312.65000000000003,180.72065287828445L315.055,225.68757408857346L317.46,228.7460187971592L319.865,230.3205760717392L322.27,226.16087222099304L324.675,228.02754440903664L327.08,224.0414353609085L329.485,239.14042809605598L331.89,215.72406166791916L334.295,235.47749170660973L336.7,238.85644921660423L339.10499999999996,210.690281778574L341.51,238.64311301708221L343.915,226.72953405976295L346.32,209.5109480023384L348.725,232.35489749908447L351.13,223.5170523226261L353.53499999999997,236.95418187975883L355.94,217.82527068257332L358.34499999999997,234.13183861970901L360.75,236.73083209991455L363.155,201.0825643837452L365.56000000000006,240.29144221544266L367.96500000000003,247.0550681054592L370.37,237.84014904499054L372.77500000000003,232.35865259170532L375.18,239.27389034628868L377.585,235.1273293197155L379.98999999999995,232.61360773444176L382.39500000000004,248.19067069888115L384.8,244.99985897541046L387.205,239.3285738825798L389.61,212.96571144461632L392.015,230.0039748251438L394.41999999999996,235.79722219705582L396.82500000000005,230.38488203287125L399.23,230.8008367717266L401.635,190.9601646065712L404.04,236.49277487397194L406.445,245.92095190286636L408.84999999999997,248.43381294608116L411.25499999999994,230.58961281180382L413.66,244.0215008854866L416.065,230.66948676109314L418.46999999999997,242.66575598716736L420.875,247.8611613214016L423.28000000000003,245.84835344552994L425.685,248.45047616958618L428.09000000000003,227.40075686573982L430.495,246.12184935808182L432.9,252.81960466504097L435.30500000000006,253.81141850352287L437.71000000000004,252.15362334251404L440.115,259.4978021979332L442.52,260.088055819273L444.925,252.12890231609344L447.33,224.26470690965652L449.73499999999996,251.16728568077087L452.14000000000004,247.841994702816L454.545,240.44039422273636L456.95,258.4163355231285L459.355,249.7704694569111L461.76,263.34121772646904L464.16499999999996,244.62708780169487L466.56999999999994,255.69577091932297L468.975,252.72056409716606L471.38,242.26161414384842L473.78499999999997,235.336128115654L476.19,238.40419524908066L478.59499999999997,261.8699254989624L481,255.48071363568306L483.40500000000003,271.5381937623024L485.81,250.15959092974663L488.215,242.7971842288971L490.62000000000006,230.01531833410263L493.02500000000003,251.24661201238632L495.43,245.9419178366661L497.835,226.81112909317017L500.24,259.0719903409481L502.645,259.4144860804081L505.04999999999995,250.60018846392632L507.45500000000004,274.2693195641041L509.86,268.54374209046364L512.265,261.16428101062775L514.6700000000001,264.83629220724106L517.075,265.5919263660908L519.48,261.06304997205734L521.885,260.9982746243477L524.29,252.50785374641418L526.6949999999999,262.3768630027771L529.0999999999999,273.89740893244743L531.505,266.08486050367355L533.91,245.58792212605476L536.3149999999999,232.50369304418564L538.72,258.3996722996235L541.125,266.55017906427383L543.53,268.2352768778801L545.9350000000001,267.8928593695164L548.34,270.1849522590637L550.745,261.75015369057655L553.1500000000001,251.74361416697502L555.5550000000001,257.3169539272785L557.96,254.93231365084648L560.365,261.72668436169624L562.77,276.13872984051704L565.175,265.7091165482998L567.5799999999999,253.1053046286106L569.985,264.9551252424717L572.39,260.8874993920326L574.795,259.9185290336609L577.2,250.1998799443245L579.605,273.6121783554554L582.01,273.50906977057457L584.4150000000001,239.7594707608223L586.82,268.8910881578922L589.225,241.97278493642807L591.63,270.1646121740341L594.035,263.16394606232643L596.4399999999999,286.2572962939739L598.845,254.25084257125854L601.25,284.6629465520382L603.655,268.8424284160137L606.06,274.8740459382534L608.465,282.64333257079124L610.87,251.23855420947075L613.275,271.2424802184105L615.6800000000001,277.03369358181953L618.085,271.3225888609886L620.49,285.2529654800892L622.895,267.00524935126305L625.3000000000001,266.51090705394745L627.705,264.00313103199005L630.11,275.47892877459526L632.515,251.23753720521927L634.92,271.9315397143364L637.3249999999999,273.97290194034576L639.73,265.70191928744316L642.135,274.07155135273933L644.54,275.78027495741844L646.9449999999999,263.65023055672646L649.35,284.42590633034706L651.755,280.65164709091187L654.16,277.2260638475418L656.565,273.81620505452156L658.97,277.8933750987053L661.375,275.64055421948433L663.78,282.72007727622986L666.1850000000001,275.69719353318214L668.59,274.40739744901657L670.995,275.15466088056564L673.4,264.319028198719L675.805,258.7881679236889L678.2099999999999,270.10805109143257L680.615,269.07148906588554L683.02,257.91127556562424L685.425,286.58516281843185L687.83,285.6109509766102L690.235,278.66637656092644L692.64,277.73996391892433L695.0450000000001,293.1722211241722L697.45,290.32265344262123L699.855,286.79521331191063L702.26,266.4254786968231L704.665,256.5117212533951L707.0699999999999,276.4296712875366L709.4749999999999,297.47289741039276L711.88,284.27961418032646L714.285,264.95934972167015L716.6899999999999,287.734847009182L719.095,283.49198350310326L721.5,293.25397261977196L723.9050000000001,295.73726230859756L726.31,271.4849183857441L728.715,290.7508904635906L731.1200000000001,294.9010501205921L733.525,286.1248510479927L735.9300000000001,287.4279464185238L738.335,284.3606615960598L740.74,269.29092729091644L743.145,286.2045685350895L745.5500000000001,273.1045367717743L747.9549999999999,281.8993548452854L750.36,286.47251003980637L752.7649999999999,288.0161660313606L755.17,289.9468312561512L757.575,287.7928944826126L759.9799999999999,279.7117787003517L762.385,277.3456791937351L764.7900000000001,267.1342524290085L767.1949999999999,278.9370561540127L769.6,270.9726611673832L772.005,288.28496807813644L774.41,285.6281618177891L776.8149999999999,288.639902561903L779.22,295.7560377717018L781.625,287.3877356350422L784.03,285.76889955997467L786.4350000000001,284.11783227324486L788.8399999999999,293.16948303580284L791.245,258.57295417785645L793.6500000000001,295.5005350112915L796.055,287.98244842886925L798.46,286.9173320531845L800.8650000000001,275.6376596689224L803.27,268.73533004522324L805.6750000000001,287.6698369681835L808.08,285.99639558792114L810.485,297.44410836696625L812.89,299.3908109664917L815.295,272.73207852244377L817.6999999999999,303.27733182907104L820.105,288.5193484425545L822.5099999999999,287.36098060011864L824.915,280.93116679787636L827.32,277.4348626434803L829.7249999999999,286.5994008779526L832.13,283.2666779458523L834.5350000000001,289.7092434167862L836.9399999999999,287.4153512120247L839.345,281.73749470710754L841.75,296.2988051176071L844.155,296.56901532411575L846.5600000000001,285.1137141287327L848.965,299.14367893338203L851.37,284.25497138500214L853.775,288.5526748895645L856.1800000000001,295.9427753984928L858.5849999999999,289.9720216691494L860.99,296.27181538939476L863.3950000000001,286.12109595537186L865.8,271.5200441479683L868.205,298.7116868197918L870.6100000000001,297.00906524062157L873.015,297.05686444044113L875.4200000000001,308.0189968049526L877.8249999999999,307.56580406427383L880.23,300.73419535160065L882.635,303.37058329582214L885.04,299.1593251526356L887.4449999999999,297.7190906703472L889.85,313.2668952047825L892.2549999999999,290.8841962516308L894.66,311.0024961233139L897.065,271.1968714892864L899.4699999999999,306.92438730597496L901.875,307.3023999631405L904.2800000000001,280.76242232322693L906.685,281.4880939722061L909.09,304.6703147292137L911.4950000000001,289.37902995944023L913.9,307.98966014385223L916.3050000000001,287.68524849414825L918.71,310.2536680698395L921.115,291.9203671216965L923.52,289.48385962843895L925.9250000000001,296.79838889837265L928.3299999999999,310.9777750968933L930.735,317.7914688885212L933.1399999999999,309.0818444788456L935.545,287.1988075375557L937.95,299.7589665055275L940.3549999999999,309.9844748675823L942.76,296.9748000204563L945.1650000000001,313.571840018034L947.5699999999999,297.59978824853897L949.975,284.0884173810482L952.38,302.5939049720764L954.785,303.35892686247826L957.1899999999999,292.067519813776L959.595,308.33747559785843L962,299.68644627928734L964.405,317.73177856206894L966.8100000000001,296.8900757431984L969.2149999999999,304.14467999339104L971.62,301.6345570385456L974.0250000000001,303.94002744555473L976.43,311.4011617898941L978.835,299.43767139315605L981.2400000000001,307.19788321852684L983.645,294.17099753022194L986.0500000000001,315.0777886211872L988.455,293.82920587062836L990.86,296.04439759254456L993.265,307.3658453822136L995.67,295.68836787343025L998.0749999999999,302.0869674682617L1000.48,284.4751919209957L1002.8849999999999,299.6134566664696L1005.29,292.37598502635956L1007.695,317.34297001361847L1010.0999999999999,314.95371410250664L1012.505,306.33874931931496L1014.9100000000001,306.73092180490494L1017.3149999999999,310.8112210929394L1019.72,316.03478962183L1022.125,317.1132835149765L1024.53,303.02691408991814L1026.935,302.5353098809719L1029.3400000000001,298.3047286570072L1031.745,316.6852811872959L1034.15,295.3576850295067L1036.555,303.75180342793465L1038.96,307.8501740992069L1041.365,296.08030566573143L1043.77,309.7875671982765L1046.175,306.65143901109695L1048.58,322.11584919691086L1050.9850000000001,299.98841831088066L1053.3899999999999,322.57483103871346L1055.795,317.755169659853L1058.1999999999998,327.6445190012455L1060.605,280.3584369421005L1063.01,306.6027010381222L1065.415,305.50003373622894L1067.82,314.0506925582886L1070.2250000000001,325.8166494369507L1072.6299999999999,315.904456615448L1075.035,315.0547886788845L1077.44,322.30602899193764L1079.845,309.5013978481293L1082.25,324.58583959937096L1084.655,301.39563927054405L1087.06,320.5462204813957L1089.465,296.03469693660736L1091.8700000000001,323.1688397526741L1094.2749999999999,316.29381278157234L1096.68,305.8905633687973L1099.085,291.2537599503994L1101.49,312.28126162290573L1103.895,328.29735749959946L1106.3000000000002,322.76743599772453L1108.705,311.4457535147667L1111.1100000000001,316.7603830397129L1113.5149999999999,317.9825092256069L1115.92,312.38804706931114L1118.325,326.75964707136154L1120.73,316.86177054047585L1123.135,306.9182070493698L1125.54,300.3569650053978L1127.945,325.3593104481697L1130.35,311.4830697476864L1132.755,326.3802262544632L1135.1599999999999,326.44547098875046L1137.565,323.580570012331L1139.97,297.95832136273384L1142.375,301.00565725564957L1144.78,316.5586250424385L1147.185,325.80311545729637L1149.59,313.24084424972534L1151.9950000000001,320.8589101731777L1154.4,315.1127579212189L1156.805,307.81692588329315L1159.21,324.94969242811203L1161.615,317.82549941539764L1164.02,311.06030890345573L1166.425,320.11915692687035L1168.8300000000002,317.72090443968773L1171.235,310.94859489798546L1173.64,333.3721304833889L1176.0449999999998,328.3967892229557L1178.45,324.8315634727478L1180.855,306.29298412799835L1183.26,318.2378555238247L1185.665,322.195957839489L1188.07,306.73123472929L1190.475,318.6120348572731L1192.8799999999999,309.1338681578636L1195.285,334.4782399535179L1197.69,317.8766625523567L1200.095,320.2357994914055L1202.5,307.6334739625454L1204.905,294.43526217341423L1207.31,314.5100655555725L1209.7150000000001,342.212244361639L1212.12,319.26706382632256L1214.525,335.6316010057926L1216.93,325.33591935038567L1219.335,327.98419842123985L1221.74,324.64232245087624L1224.145,290.68619334697723L1226.55,315.10462188720703L1228.955,323.8891134560108L1231.3600000000001,320.1345684528351L1233.7649999999999,316.4687375128269L1236.17,328.37371104955673L1238.5749999999998,308.6318592131138L1240.98,336.43221804499626L1243.385,317.16014394164085L1245.79,331.2938431799412L1248.195,336.4042113125324L1250.6000000000001,320.2420579791069L1253.0049999999999,319.2374142408371L1255.41,323.29729521274567L1257.815,317.53534027934074L1260.22,331.9199266433716L1262.625,320.1682078242302L1265.03,319.3146283328533L1267.435,325.9299280643463L1269.84,340.8038499355316L1272.2450000000001,322.1779646873474L1274.6499999999999,309.8077508211136L1277.055,322.26190665364265L1279.46,332.0129434168339L1281.865,324.50181940197945L1284.27,310.02679789066315L1286.6750000000002,332.9015704393387L1289.08,314.9498807787895L1291.4850000000001,318.43366795778275L1293.8899999999999,324.954073369503L1296.295,303.7749598324299L1298.7,330.9195856153965L1301.105,330.8167117238045L1303.51,338.3380057811737L1305.915,335.2959896028042L1308.32,308.3814414739609L1310.725,329.700823366642L1313.13,334.4833249747753L1315.5349999999999,337.1243285536766L1317.94,328.1567762196064L1320.345,308.0219695866108" style="fill: none;" fill="none"></path></g></g></g></g></g></g><g transform="translate(70, 378)" clip-path="url(#clip_1)"><clipPath id="clip_1"><rect width="1443" height="22"></rect></clipPath><g><g><line x1="0" y1="0" x2="0" y2="5" style="visibility: inherit;" fill="rgb(0, 0, 0)" stroke="rgb(204, 204, 204)" stroke-width="1px"></line><line x1="120.25" y1="0" x2="120.25" y2="5" style="visibility: inherit;" fill="rgb(0, 0, 0)" stroke="rgb(204, 204, 204)" stroke-width="1px"></line><line x1="240.5" y1="0" x2="240.5" y2="5" style="visibility: inherit;" fill="rgb(0, 0, 0)" stroke="rgb(204, 204, 204)" stroke-width="1px"></line><line x1="360.75" y1="0" x2="360.75" y2="5" style="visibility: inherit;" fill="rgb(0, 0, 0)" stroke="rgb(204, 204, 204)" stroke-width="1px"></line><line x1="481" y1="0" x2="481" y2="5" style="visibility: inherit;" fill="rgb(0, 0, 0)" stroke="rgb(204, 204, 204)" stroke-width="1px"></line><line x1="601.25" y1="0" x2="601.25" y2="5" style="visibility: inherit;" fill="rgb(0, 0, 0)" stroke="rgb(204, 204, 204)" stroke-width="1px"></line><line x1="721.5" y1="0" x2="721.5" y2="5" style="visibility: inherit;" fill="rgb(0, 0, 0)" stroke="rgb(204, 204, 204)" stroke-width="1px"></line><line x1="841.75" y1="0" x2="841.75" y2="5" style="visibility: inherit;" fill="rgb(0, 0, 0)" stroke="rgb(204, 204, 204)" stroke-width="1px"></line><line x1="962" y1="0" x2="962" y2="5" style="visibility: inherit;" fill="rgb(0, 0, 0)" stroke="rgb(204, 204, 204)" stroke-width="1px"></line><line x1="1082.25" y1="0" x2="1082.25" y2="5" style="visibility: inherit;" fill="rgb(0, 0, 0)" stroke="rgb(204, 204, 204)" stroke-width="1px"></line><line x1="1202.5" y1="0" x2="1202.5" y2="5" style="visibility: inherit;" fill="rgb(0, 0, 0)" stroke="rgb(204, 204, 204)" stroke-width="1px"></line><line x1="1322.75" y1="0" x2="1322.75" y2="5" style="visibility: inherit;" fill="rgb(0, 0, 0)" stroke="rgb(204, 204, 204)" stroke-width="1px"></line><line x1="1443" y1="0" x2="1443" y2="5" style="visibility: inherit;" fill="rgb(0, 0, 0)" stroke="rgb(204, 204, 204)" stroke-width="1px"></line></g><g transform="translate(0, 8)"><text x="0" y="0" dx="0em" dy="0.95em" style="text-anchor: middle; visibility: hidden; font-family: &quot;Helvetica Neue&quot;, sans-serif; font-size: 12px; font-weight: 200;" fill="rgb(50, 49, 63)" stroke="none" stroke-width="1px">-50</text><text x="120.25" y="0" dx="0em" dy="0.95em" style="text-anchor: middle; visibility: inherit; font-family: &quot;Helvetica Neue&quot;, sans-serif; font-size: 12px; font-weight: 200;" fill="rgb(50, 49, 63)" stroke="none" stroke-width="1px">0</text><text x="240.5" y="0" dx="0em" dy="0.95em" style="text-anchor: middle; visibility: inherit; font-family: &quot;Helvetica Neue&quot;, sans-serif; font-size: 12px; font-weight: 200;" fill="rgb(50, 49, 63)" stroke="none" stroke-width="1px">50</text><text x="360.75" y="0" dx="0em" dy="0.95em" style="text-anchor: middle; visibility: inherit; font-family: &quot;Helvetica Neue&quot;, sans-serif; font-size: 12px; font-weight: 200;" fill="rgb(50, 49, 63)" stroke="none" stroke-width="1px">100</text><text x="481" y="0" dx="0em" dy="0.95em" style="text-anchor: middle; visibility: inherit; font-family: &quot;Helvetica Neue&quot;, sans-serif; font-size: 12px; font-weight: 200;" fill="rgb(50, 49, 63)" stroke="none" stroke-width="1px">150</text><text x="601.25" y="0" dx="0em" dy="0.95em" style="text-anchor: middle; visibility: inherit; font-family: &quot;Helvetica Neue&quot;, sans-serif; font-size: 12px; font-weight: 200;" fill="rgb(50, 49, 63)" stroke="none" stroke-width="1px">200</text><text x="721.5" y="0" dx="0em" dy="0.95em" style="text-anchor: middle; visibility: inherit; font-family: &quot;Helvetica Neue&quot;, sans-serif; font-size: 12px; font-weight: 200;" fill="rgb(50, 49, 63)" stroke="none" stroke-width="1px">250</text><text x="841.75" y="0" dx="0em" dy="0.95em" style="text-anchor: middle; visibility: inherit; font-family: &quot;Helvetica Neue&quot;, sans-serif; font-size: 12px; font-weight: 200;" fill="rgb(50, 49, 63)" stroke="none" stroke-width="1px">300</text><text x="962" y="0" dx="0em" dy="0.95em" style="text-anchor: middle; visibility: inherit; font-family: &quot;Helvetica Neue&quot;, sans-serif; font-size: 12px; font-weight: 200;" fill="rgb(50, 49, 63)" stroke="none" stroke-width="1px">350</text><text x="1082.25" y="0" dx="0em" dy="0.95em" style="text-anchor: middle; visibility: inherit; font-family: &quot;Helvetica Neue&quot;, sans-serif; font-size: 12px; font-weight: 200;" fill="rgb(50, 49, 63)" stroke="none" stroke-width="1px">400</text><text x="1202.5" y="0" dx="0em" dy="0.95em" style="text-anchor: middle; visibility: inherit; font-family: &quot;Helvetica Neue&quot;, sans-serif; font-size: 12px; font-weight: 200;" fill="rgb(50, 49, 63)" stroke="none" stroke-width="1px">450</text><text x="1322.75" y="0" dx="0em" dy="0.95em" style="text-anchor: middle; visibility: inherit; font-family: &quot;Helvetica Neue&quot;, sans-serif; font-size: 12px; font-weight: 200;" fill="rgb(50, 49, 63)" stroke="none" stroke-width="1px">500</text><text x="1443" y="0" dx="0em" dy="0.95em" style="text-anchor: middle; visibility: hidden; font-family: &quot;Helvetica Neue&quot;, sans-serif; font-size: 12px; font-weight: 200;" fill="rgb(50, 49, 63)" stroke="none" stroke-width="1px">550</text></g><line x1="0" y1="0" x2="1443" y2="0" fill="rgb(0, 0, 0)" stroke="rgb(204, 204, 204)" stroke-width="1px"></line></g></g></g></g></svg>